<svg id="ecrit_par_-_copie" data-name="ecrit par - copie" xmlns="http://www.w3.org/2000/svg" viewBox="0 0 61.99 52.18"><defs><style>.cls-1{fill:#1d1d1b;}</style></defs><path class="cls-1" d="M363.71,298V279.55c0-1.77-1-2.63-3.1-2.63h-2.95v23.71h2.95C362.7,300.63,363.71,299.78,363.71,298Zm-3.24-19.87c1.15,0,1.67.41,1.67,1.31V298.1c0,.91-.52,1.31-1.67,1.31h-1.23V278.14Z" transform="translate(-354.56 -276.79)"/><rect class="cls-1" x="11.15" y="0.13" width="1.58" height="23.72"/><path class="cls-1" d="M370.88,289.06H372a1.48,1.48,0,0,1,1.69,1.57v10h1.58v-10a2,2,0,0,0-1.58-2.14c1.38-.33,1.58-1.35,1.58-2.35v-6.92c0-1.44-1.06-2.3-2.84-2.3H369.3v23.71h1.58Zm0-10.92h1.3c1,0,1.49.43,1.49,1.34v6.92c0,1-.54,1.44-1.63,1.44h-1.16Z" transform="translate(-354.56 -276.79)"/><polygon class="cls-1" points="27.71 22.62 24.27 22.62 24.27 12.28 27.28 12.28 27.28 11.05 24.27 11.05 24.27 1.35 27.48 1.35 27.48 0.13 22.69 0.13 22.69 23.85 27.71 23.85 27.71 22.62"/><path class="cls-1" d="M385.83,300.76c1.82,0,2.81-.94,2.81-2.66v-4.31h-1.57v4.12c0,1.22-.31,1.63-1.24,1.63a1.24,1.24,0,0,1-1.36-1.34V279.35a1.24,1.24,0,0,1,1.36-1.34c.83,0,1.24.54,1.24,1.63v3.8h1.57v-4c0-1.72-1-2.66-2.81-2.66s-2.94,1-2.94,2.66V298.1C382.89,299.77,384,300.76,385.83,300.76Z" transform="translate(-354.56 -276.79)"/><polygon class="cls-1" points="34.19 1.35 36.55 1.35 36.55 23.85 38.12 23.85 38.12 1.35 40.48 1.35 40.48 0.13 34.19 0.13 34.19 1.35"/><polygon class="cls-1" points="46.08 22.62 42.63 22.62 42.63 12.28 45.65 12.28 45.65 11.05 42.63 11.05 42.63 1.35 45.85 1.35 45.85 0.13 41.05 0.13 41.05 23.85 46.08 23.85 46.08 22.62"/><path class="cls-1" d="M404.76,300.76c1.91,0,3-1,3-2.66V276.92H406.2v21.15a1.31,1.31,0,0,1-1.44,1.47,1.33,1.33,0,0,1-1.46-1.47V276.92h-1.58V298.1C401.72,299.79,402.83,300.76,404.76,300.76Z" transform="translate(-354.56 -276.79)"/><path class="cls-1" d="M414.05,290.63v10h1.58v-10a2,2,0,0,0-1.58-2.14c1.38-.33,1.58-1.35,1.58-2.35v-6.92c0-1.44-1.07-2.3-2.85-2.3h-3.11v23.71h1.58V289.06h1.1A1.49,1.49,0,0,1,414.05,290.63Zm-2.8-12.49h1.3c1,0,1.5.43,1.5,1.34v6.92c0,1-.55,1.44-1.63,1.44h-1.17Z" transform="translate(-354.56 -276.79)"/><path class="cls-1" d="M359.36,305.12h-2.08l-2.7,23.58,0,.13H356l.73-6.85h3.06l.75,6.74v.11h1.58l-2.77-23.6Zm-.66,6.71c.05.45.11.91.16,1.36l.81,7.56H356.9l.85-7.56c.13-1.18.22-2.39.31-3.56.06-.75.12-1.53.19-2.29C358.35,308.85,358.52,310.36,358.7,311.83Z" transform="translate(-354.56 -276.79)"/><path class="cls-1" d="M365.78,305.12h-3.11v23.71h1.58V317.26h1.1a1.48,1.48,0,0,1,1.69,1.57v10h1.58v-10a2,2,0,0,0-1.58-2.14c1.38-.33,1.58-1.35,1.58-2.35v-6.92C368.62,306,367.56,305.12,365.78,305.12Zm-1.53,1.22h1.3c1,0,1.49.43,1.49,1.34v6.92c0,1-.54,1.44-1.63,1.44h-1.16Z" transform="translate(-354.56 -276.79)"/><polygon class="cls-1" points="14.4 29.55 16.76 29.55 16.76 52.05 18.33 52.05 18.33 29.55 20.69 29.55 20.69 28.33 14.4 28.33 14.4 29.55"/><rect class="cls-1" x="21.36" y="28.33" width="1.58" height="23.72"/><path class="cls-1" d="M381.24,313.32a5,5,0,0,1-.52-2.19v-3.64a1.21,1.21,0,0,1,1.3-1.28c.9,0,1.3.38,1.3,1.21v4.19h1.45v-4.32c0-1.55-.94-2.3-2.85-2.3s-2.88,1-2.88,2.56V311a7.31,7.31,0,0,0,.88,3.25l2.78,5.16a6.41,6.41,0,0,1,.69,3v4c0,1-.42,1.37-1.5,1.37s-1.4-.4-1.4-1.3v-4.39H379v4.29c0,1.79.94,2.62,2.95,2.62s3-.82,3-2.52V322a7.81,7.81,0,0,0-1-3.6Z" transform="translate(-354.56 -276.79)"/><polygon class="cls-1" points="30.51 29.55 32.87 29.55 32.87 52.05 34.44 52.05 34.44 29.55 36.8 29.55 36.8 28.33 30.51 28.33 30.51 29.55"/><rect class="cls-1" x="37.48" y="28.33" width="1.58" height="23.72"/><path class="cls-1" d="M401.36,327.67l-.36,0a2.22,2.22,0,0,0,.67-1.93V307.65c0-1.69-1.09-2.66-3-2.66s-3,1-3,2.66V326.3c0,1.7,1.11,2.66,3.05,2.66h0l1.55-.13h2.38v-1.22h-.49A7.06,7.06,0,0,0,401.36,327.67Zm-2.7.07a1.33,1.33,0,0,1-1.46-1.47V307.65a1.45,1.45,0,0,1,2.9,0v18.62A1.31,1.31,0,0,1,398.66,327.74Z" transform="translate(-354.56 -276.79)"/><path class="cls-1" d="M408.05,326.27a1.31,1.31,0,0,1-1.43,1.47,1.34,1.34,0,0,1-1.47-1.47V305.12h-1.57V326.3c0,1.7,1.11,2.66,3,2.66s3-1,3-2.66V305.12h-1.58Z" transform="translate(-354.56 -276.79)"/><polygon class="cls-1" points="58.55 50.82 58.55 40.48 61.56 40.48 61.56 39.25 58.55 39.25 58.55 29.55 61.76 29.55 61.76 28.33 56.97 28.33 56.97 52.05 61.99 52.05 61.99 50.82 58.55 50.82"/></svg>