<svg id="ecrit_par_-_copie" data-name="ecrit par - copie" xmlns="http://www.w3.org/2000/svg" viewBox="0 0 42.49 56.5">
	<defs>
		<style>.cls-1{fill:#1d1d1b;}</style>
	</defs>
	<path class="cls-1" d="M377.18,276.92h-3.11v23.71h1.58V289.06h1.1a1.49,1.49,0,0,1,1.7,1.57v10H380v-10a2,2,0,0,0-1.57-2.14c1.37-.33,1.57-1.35,1.57-2.35v-6.92C380,277.78,379,276.92,377.18,276.92Zm-1.53,1.22H377c1,0,1.5.43,1.5,1.34v6.92c0,1-.55,1.44-1.63,1.44h-1.17Z" transform="translate(-374.07 -272.34)"/>
	<polygon class="cls-1" points="12.25 0 10.48 0 9.05 3.37 10.17 3.37 12.25 0"/>
	<path class="cls-1" d="M391.55,276.92h-2.08l-2.58,22.49H383.6V289.06h3v-1.22h-3v-9.7h3.22v-1.22H382v23.71h6.17l.73-6.85H392l.75,6.74v.11h1.58L391.56,277Zm-.66,6.71c.05.45.11.91.16,1.36l.81,7.56h-2.77l.84-7.56c.14-1.18.23-2.39.32-3.56.06-.75.12-1.53.19-2.29C390.53,280.65,390.71,282.16,390.89,283.63Z" transform="translate(-374.07 -272.34)"/>
	<polygon class="cls-1" points="25.84 27.07 22.36 27.07 22.36 4.58 20.79 4.58 20.79 28.3 25.84 28.3 25.84 27.07"/>
	<rect class="cls-1" x="26.98" y="4.58" width="1.58" height="23.72"/>
	<path class="cls-1" d="M410.09,293.81a7.81,7.81,0,0,0-1-3.6l-2.71-5.09a4.84,4.84,0,0,1-.52-2.19v-3.64a1.21,1.21,0,0,1,1.3-1.28c.9,0,1.3.38,1.3,1.21v4.19h1.44v-4.32c0-1.55-.93-2.3-2.84-2.3s-2.88,1-2.88,2.56v3.41a7.31,7.31,0,0,0,.88,3.25l2.78,5.16a6.54,6.54,0,0,1,.69,3v4c0,1-.43,1.37-1.5,1.37s-1.4-.4-1.4-1.31v-4.38h-1.45v4.29c0,1.79.94,2.62,2.95,2.62s3-.82,3-2.53Z" transform="translate(-374.07 -272.34)"/>
	<polygon class="cls-1" points="39.04 27.07 39.04 16.73 42.05 16.73 42.05 15.5 39.04 15.5 39.04 5.81 42.25 5.81 42.25 4.58 37.46 4.58 37.46 28.3 42.48 28.3 42.48 27.07 39.04 27.07"/>
	<polygon class="cls-1" points="41.76 0 39.99 0 38.56 3.37 39.68 3.37 41.76 0"/>
	<path class="cls-1" d="M401.9,307.49c0-1.57-.95-2.37-2.84-2.37H396v23.71h1.58V317.52h1.53c1.78,0,2.84-.88,2.84-2.36Zm-4.37-1.15h1.3c1,0,1.5.44,1.5,1.34V315c0,1.1-.94,1.27-1.5,1.27h-1.3Z" transform="translate(-374.07 -272.34)"/>
	<path class="cls-1" d="M406.36,305.12h-2.07l-2.7,23.58,0,.13H403l.73-6.85h3.05l.75,6.74,0,.11h1.58l-2.77-23.6Zm-.65,6.71.15,1.36.82,7.56h-2.77l.84-7.56c.14-1.18.23-2.39.32-3.56.06-.75.12-1.53.19-2.29C405.35,308.85,405.53,310.36,405.71,311.83Z" transform="translate(-374.07 -272.34)"/>
	<path class="cls-1" d="M412.78,305.12h-3.11v23.71h1.58V317.26h1.1a1.49,1.49,0,0,1,1.7,1.57v10h1.58v-10a2,2,0,0,0-1.58-2.14c1.37-.33,1.58-1.35,1.58-2.35v-6.92C415.63,306,414.56,305.12,412.78,305.12Zm-1.53,1.22h1.3c1,0,1.5.43,1.5,1.34v6.92c0,1-.55,1.44-1.63,1.44h-1.17Z" transform="translate(-374.07 -272.34)"/>
</svg>