<?xml version="1.0" encoding="UTF-8"?>
<svg id="written_by_-_copie" data-name="written by - copie" xmlns="http://www.w3.org/2000/svg" viewBox="0 0 2000 1000">
  <defs>
    <style>
      .cls-1 {
        fill: #1d1d1b;
        stroke-width: 0px;
      }
    </style>
  </defs>
  <path class="cls-1" d="M109.08,78.98h40.95c21.84,0,37.31,10.01,37.31,30.48v96.92c0,17.75-5,30.49-28.21,32.31v.91c16.38,1.36,28.21,9.55,28.21,29.58v138.32h-18.2v-138.32c0-12.29-6.82-23.66-25.02-23.66h-16.83v161.98h-18.2V78.98ZM145.03,231.86c15.47,0,24.11-7.28,24.11-21.84v-96.92c0-14.1-7.73-20.48-22.29-20.48h-19.56v139.23h17.75Z"/>
  <path class="cls-1" d="M218.74,78.98h62.33v13.65h-44.13v139.23h41.4v13.65h-41.4v148.33h47.32v13.65h-65.52V78.98ZM252.86,14.82h20.02l-26.39,43.68h-11.83l18.2-43.68Z"/>
  <path class="cls-1" d="M355.69,311.48h-45.05l-10.01,96.01h-16.38l36.86-328.51h25.48l37.77,328.51h-18.2l-10.46-96.01ZM354.33,297.83l-11.38-107.84c-3.64-32.76-8.19-65.98-9.1-99.19h-.91c-3.64,32.76-5.01,66.43-8.65,99.19l-11.83,107.84h41.86Z"/>
  <path class="cls-1" d="M395.73,78.98h18.2v314.86h47.77v13.65h-65.98V78.98Z"/>
  <path class="cls-1" d="M481.27,78.98h18.2v328.51h-18.2V78.98Z"/>
  <path class="cls-1" d="M540.87,375.64c0,10.92,4.1,20.02,20.93,20.02,15.47,0,22.3-5.92,22.3-20.93v-56.42c0-17.29-3.19-27.3-9.56-42.32l-38.22-72.35c-7.73-14.56-11.83-31.85-11.83-44.59v-47.77c0-21.39,14.56-34.13,37.77-34.13,24.57,0,37.31,9.1,37.31,30.49v58.7h-16.38v-56.88c0-13.19-6.83-18.65-19.56-18.65s-19.57,8.65-19.57,19.56v50.96c0,10.92,2.28,20.48,7.28,31.4l37.31,71.44c7.73,15.47,13.65,31.4,13.65,49.6v61.88c0,20.93-10.46,33.67-39.13,33.67s-38.68-12.74-38.68-35.04v-58.24h16.38v59.61Z"/>
  <path class="cls-1" d="M625.96,78.98h62.33v13.65h-44.13v139.23h41.4v13.65h-41.4v148.33h47.32v13.65h-65.52V78.98ZM660.08,14.82h20.02l-26.39,43.68h-11.83l18.2-43.68Z"/>
  <path class="cls-1" d="M411.21,471.48h40.95c24.57,0,37.31,10.01,37.31,31.4v107.38c0,18.65-12.74,31.39-37.31,31.39h-22.75v158.34h-18.2v-328.51ZM448.97,628c13.19,0,22.29-6.37,22.29-19.57v-102.83c0-14.11-8.19-20.48-22.29-20.48h-19.56v142.87h19.56Z"/>
  <path class="cls-1" d="M560.44,703.98h-45.05l-10.01,96.01h-16.38l36.86-328.51h25.48l37.77,328.51h-18.2l-10.46-96.01ZM559.08,690.33l-11.38-107.84c-3.64-32.76-8.19-65.97-9.1-99.19h-.91c-3.64,32.76-5.01,66.43-8.65,99.19l-11.83,107.84h41.86Z"/>
  <path class="cls-1" d="M600.48,471.48h40.95c21.84,0,37.31,10.01,37.31,30.48v96.92c0,17.74-5,30.48-28.21,32.3v.91c16.38,1.37,28.21,9.55,28.21,29.58v138.32h-18.2v-138.32c0-12.29-6.82-23.66-25.02-23.66h-16.83v161.98h-18.2v-328.51ZM636.42,624.36c15.47,0,24.11-7.28,24.11-21.84v-96.92c0-14.11-7.73-20.48-22.29-20.48h-19.56v139.23h17.75Z"/>
</svg>