<?xml version="1.0" encoding="UTF-8"?>
<svg id="written_by_-_copie" data-name="written by - copie" xmlns="http://www.w3.org/2000/svg" viewBox="0 0 2000 1000">
  <defs>
    <style>
      .cls-1 {
        fill: #1d1d1b;
        stroke-width: 0px;
      }
    </style>
  </defs>
  <path class="cls-1" d="M116.9,112.65c0-22.75,14.56-35.49,38.68-35.49s36.85,12.74,36.85,35.49v54.15h-18.2v-51.42c0-13.19-4.09-24.57-18.65-24.57-12.74,0-20.48,7.73-20.48,20.48v263.9c0,12.74,7.73,20.48,20.48,20.48,14.56,0,18.65-7.73,18.65-24.57v-55.96h18.2v58.7c0,22.75-12.74,35.49-36.85,35.49s-38.68-12.74-38.68-35.49V112.65Z"/>
  <path class="cls-1" d="M295.72,373.82c0,22.75-14.11,35.49-39.59,35.49s-40.04-12.74-40.04-35.49V112.65c0-22.75,14.56-35.49,40.04-35.49s39.59,12.74,39.59,35.49v261.17ZM277.52,113.1c0-14.56-8.19-22.29-21.39-22.29s-21.84,7.73-21.84,22.29v260.26c0,14.56,8.65,22.29,21.84,22.29s21.39-7.73,21.39-22.29V113.1Z"/>
  <path class="cls-1" d="M314.82,287.37h42.31v11.83h-42.31v-11.83Z"/>
  <path class="cls-1" d="M376.25,78.98h40.95c24.57,0,37.31,10.01,37.31,31.4v107.38c0,18.66-12.74,31.4-37.31,31.4h-22.75v158.34h-18.2V78.98ZM414.01,235.5c13.19,0,22.29-6.37,22.29-19.56v-102.83c0-14.1-8.19-20.48-22.29-20.48h-19.56v142.87h19.56Z"/>
  <path class="cls-1" d="M477.25,78.98h40.95c21.84,0,37.31,10.01,37.31,30.48v96.92c0,17.75-5,30.49-28.21,32.31v.91c16.38,1.36,28.21,9.55,28.21,29.58v138.32h-18.2v-138.32c0-12.29-6.82-23.66-25.02-23.66h-16.83v161.98h-18.2V78.98ZM513.19,231.86c15.47,0,24.12-7.28,24.12-21.84v-96.92c0-14.1-7.73-20.48-22.29-20.48h-19.56v139.23h17.74Z"/>
  <path class="cls-1" d="M666.53,373.82c0,22.75-14.1,35.49-39.58,35.49s-40.04-12.74-40.04-35.49V112.65c0-22.75,14.56-35.49,40.04-35.49s39.58,12.74,39.58,35.49v261.17ZM648.33,113.1c0-14.56-8.19-22.29-21.39-22.29s-21.84,7.73-21.84,22.29v260.26c0,14.56,8.65,22.29,21.84,22.29s21.39-7.73,21.39-22.29V113.1Z"/>
  <path class="cls-1" d="M696.56,78.98h38.68c26.84,0,40.95,10.46,40.95,35.04v258.44c0,24.57-14.11,35.04-40.95,35.04h-38.68V78.98ZM733.41,393.84c16.38,0,24.57-5.92,24.57-20.02V112.65c0-14.1-8.19-20.02-24.57-20.02h-18.65v301.21h18.65Z"/>
  <path class="cls-1" d="M885.83,78.98v294.84c0,22.75-14.1,35.49-39.58,35.49s-40.04-12.74-40.04-35.49V78.98h18.2v294.39c0,14.56,8.65,22.29,21.84,22.29s21.39-7.73,21.39-22.29V78.98h18.2Z"/>
  <path class="cls-1" d="M909.49,112.65c0-22.75,14.56-35.49,38.67-35.49s36.86,12.74,36.86,35.49v54.15h-18.2v-51.42c0-13.19-4.1-24.57-18.66-24.57-12.74,0-20.48,7.73-20.48,20.48v263.9c0,12.74,7.74,20.48,20.48,20.48,14.56,0,18.66-7.73,18.66-24.57v-55.96h18.2v58.7c0,22.75-12.74,35.49-36.86,35.49s-38.67-12.74-38.67-35.49V112.65Z"/>
  <path class="cls-1" d="M1022.79,92.63h-32.3v-13.65h82.81v13.65h-32.3v314.86h-18.2V92.63Z"/>
  <path class="cls-1" d="M1085.12,78.98h62.34v13.65h-44.14v139.23h41.41v13.65h-41.41v148.33h47.32v13.65h-65.52V78.98Z"/>
  <path class="cls-1" d="M1248.92,78.98v294.84c0,22.75-14.11,35.49-39.58,35.49s-40.04-12.74-40.04-35.49V78.98h18.2v294.39c0,14.56,8.65,22.29,21.84,22.29s21.38-7.73,21.38-22.29V78.98h18.2Z"/>
  <path class="cls-1" d="M1278.95,78.98h40.95c21.84,0,37.31,10.01,37.31,30.48v96.92c0,17.75-5,30.49-28.21,32.31v.91c16.38,1.36,28.21,9.55,28.21,29.58v138.32h-18.2v-138.32c0-12.29-6.83-23.66-25.03-23.66h-16.83v161.98h-18.2V78.98ZM1314.89,231.86c15.47,0,24.12-7.28,24.12-21.84v-96.92c0-14.1-7.74-20.48-22.29-20.48h-19.57v139.23h17.75Z"/>
  <path class="cls-1" d="M722.95,471.48h38.68c26.84,0,40.95,10.46,40.95,35.03v258.44c0,24.57-14.1,35.04-40.95,35.04h-38.68v-328.51ZM759.8,786.34c16.38,0,24.57-5.92,24.57-20.02v-261.17c0-14.11-8.19-20.02-24.57-20.02h-18.65v301.21h18.65Z"/>
  <path class="cls-1" d="M832.6,471.48h62.34v13.65h-44.14v139.23h41.4v13.65h-41.4v148.33h47.32v13.65h-65.52v-328.51ZM866.73,407.32h20.02l-26.39,43.68h-11.83l18.2-43.68Z"/>
  <path class="cls-1" d="M916.77,471.48h18.2v314.86h47.78v13.65h-65.98v-328.51Z"/>
  <path class="cls-1" d="M1000.95,471.48h62.34v13.65h-44.14v139.23h41.41v13.65h-41.41v148.33h47.32v13.65h-65.52v-328.51ZM1035.07,407.32h20.02l-26.39,43.68h-11.83l18.2-43.68Z"/>
  <path class="cls-1" d="M1128.35,641.65h36.4v150.15l-2.28,1.37c-7.28,4.55-20.47,8.65-37.31,8.65-25.48,0-40.04-12.74-40.04-35.49v-261.17c0-22.75,14.56-35.49,40.04-35.49s39.58,12.74,39.58,35.49v53.23h-18.2v-50.96c0-14.56-9.1-24.11-21.38-24.11s-21.84,9.56-21.84,24.11v260.26c0,12.74,9.56,20.47,21.84,20.47,8.64,0,16.83-2.73,21.38-5.46v-127.4h-18.2v-13.65Z"/>
  <path class="cls-1" d="M1274.4,471.48v294.84c0,22.75-14.11,35.49-39.58,35.49s-40.04-12.74-40.04-35.49v-294.84h18.2v294.39c0,14.56,8.65,22.29,21.84,22.29s21.38-7.74,21.38-22.29v-294.39h18.2Z"/>
  <path class="cls-1" d="M1304.43,471.48h62.34v13.65h-44.14v139.23h41.41v13.65h-41.41v148.33h47.32v13.65h-65.52v-328.51ZM1338.55,407.32h20.02l-26.39,43.68h-11.83l18.2-43.68Z"/>
</svg>