<?xml version="1.0" encoding="UTF-8"?>
<svg id="written_by_-_copie" data-name="written by - copie" xmlns="http://www.w3.org/2000/svg" viewBox="0 0 2000 1000">
  <defs>
    <style>
      .cls-1 {
        fill: #1d1d1b;
        stroke-width: 0px;
      }
    </style>
  </defs>
  <path class="cls-1" d="M728.66,78.98h30.03l20.02,197.93c3.64,34.58,6.83,76.9,8.19,116.94h.91c2.27-39.59,5-83.27,8.65-116.94l20.93-197.93h30.03v328.51h-18.2v-203.84c0-21.39.91-69.62,1.82-111.02h-.91c-4.1,43.23-9.56,95.55-12.74,130.13l-18.2,184.73h-22.75l-18.66-182.91c-2.73-28.21-10.01-94.19-11.83-131.95h-.91c-.46,43.23,1.82,90.55,1.82,111.02v203.84h-18.2V78.98Z"/>
  <path class="cls-1" d="M958.43,373.82c0,22.75-14.11,35.49-39.58,35.49s-40.04-12.74-40.04-35.49V112.65c0-22.75,14.56-35.49,40.04-35.49s39.58,12.74,39.58,35.49v261.17ZM940.23,113.1c0-14.56-8.19-22.29-21.38-22.29s-21.84,7.73-21.84,22.29v260.26c0,14.56,8.65,22.29,21.84,22.29s21.38-7.73,21.38-22.29V113.1Z"/>
  <path class="cls-1" d="M988.46,78.98h27.3l30.94,212.03c3.64,25.94,9.1,63.25,15.02,102.83h.91c-2.28-45.5-4.55-87.82-4.55-105.56V78.98h18.2v328.51h-27.3l-31.85-209.3c-2.73-17.75-7.74-62.34-12.74-105.56h-.91c.91,42.77,3.18,84.63,3.18,95.55v219.31h-18.2V78.98Z"/>
  <path class="cls-1" d="M1120.41,92.63h-32.3v-13.65h82.81v13.65h-32.3v314.86h-18.2V92.63Z"/>
  <path class="cls-1" d="M1230.97,311.48h-45.04l-10.01,96.01h-16.38l36.85-328.51h25.48l37.76,328.51h-18.2l-10.47-96.01ZM1229.61,297.83l-11.38-107.84c-3.64-32.76-8.19-65.98-9.1-99.19h-.91c-3.64,32.76-5,66.43-8.64,99.19l-11.83,107.84h41.86Z"/>
  <path class="cls-1" d="M1314.23,249.15h36.4v150.15l-2.28,1.36c-7.28,4.55-20.47,8.65-37.31,8.65-25.48,0-40.04-12.74-40.04-35.49V112.65c0-22.75,14.56-35.49,40.04-35.49s39.58,12.74,39.58,35.49v53.24h-18.2v-50.96c0-14.56-9.1-24.11-21.38-24.11s-21.84,9.56-21.84,24.11v260.26c0,12.74,9.56,20.48,21.84,20.48,8.64,0,16.83-2.73,21.38-5.46v-127.4h-18.2v-13.65Z"/>
  <path class="cls-1" d="M1380.66,78.98h62.34v13.65h-44.14v139.23h41.41v13.65h-41.41v148.33h47.32v13.65h-65.52V78.98Z"/>
  <path class="cls-1" d="M1271.01,471.48h38.68c26.84,0,40.95,10.46,40.95,35.03v258.44c0,24.57-14.11,35.04-40.95,35.04h-38.68v-328.51ZM1307.87,786.34c16.38,0,24.57-5.92,24.57-20.02v-261.17c0-14.11-8.19-20.02-24.57-20.02h-18.66v301.21h18.66Z"/>
  <path class="cls-1" d="M1380.66,471.48h62.34v13.65h-44.14v139.23h41.41v13.65h-41.41v148.33h47.32v13.65h-65.52v-328.51Z"/>
</svg>