<svg id="ecrit_par_-_copie" data-name="ecrit par - copie" xmlns="http://www.w3.org/2000/svg" viewBox="0 0 53.49 28.43"><defs><style>.cls-1{fill:#1d1d1b;}</style></defs><path class="cls-1" d="M366.18,276.92h-3.11v23.71h1.57V289.32h1.54c1.78,0,2.84-.88,2.84-2.36v-7.67C369,277.72,368.06,276.92,366.18,276.92Zm-1.54,1.22h1.3c1,0,1.5.44,1.5,1.34v7.35c0,1.1-.94,1.27-1.5,1.27h-1.3Z" transform="translate(-363.07 -272.34)"/><path class="cls-1" d="M373.5,276.92h-3.11v23.71H372V289.06h1.1a1.49,1.49,0,0,1,1.7,1.57v10h1.57v-10a2,2,0,0,0-1.57-2.14c1.37-.33,1.57-1.35,1.57-2.35v-6.92C376.34,277.78,375.28,276.92,373.5,276.92ZM372,278.14h1.3c1,0,1.5.43,1.5,1.34v6.92c0,1-.55,1.44-1.63,1.44H372Z" transform="translate(-363.07 -272.34)"/><polygon class="cls-1" points="19.58 0 17.81 0 16.38 3.37 17.5 3.37 19.58 0"/><polygon class="cls-1" points="16.86 16.73 19.88 16.73 19.88 15.5 16.86 15.5 16.86 5.81 20.07 5.81 20.07 4.58 15.28 4.58 15.28 28.3 20.31 28.3 20.31 27.07 16.86 27.07 16.86 16.73"/><path class="cls-1" d="M386.18,285.12a4.84,4.84,0,0,1-.52-2.19v-3.64A1.21,1.21,0,0,1,387,278c.9,0,1.3.38,1.3,1.21v4.19h1.44v-4.32c0-1.55-.93-2.3-2.84-2.3s-2.88,1-2.88,2.56v3.41a7.31,7.31,0,0,0,.88,3.25l2.78,5.16a6.41,6.41,0,0,1,.69,3v4c0,1-.42,1.37-1.5,1.37s-1.4-.4-1.4-1.31v-4.38H384v4.29c0,1.79.94,2.62,2.95,2.62s3-.82,3-2.53v-4.42a7.81,7.81,0,0,0-1-3.6Z" transform="translate(-363.07 -272.34)"/><polygon class="cls-1" points="29.85 16.73 32.87 16.73 32.87 15.5 29.85 15.5 29.85 5.81 33.07 5.81 33.07 4.58 28.28 4.58 28.28 28.3 33.3 28.3 33.3 27.07 29.85 27.07 29.85 16.73"/><path class="cls-1" d="M402.52,292c0,1,.1,3.17.23,5.7-.33-2.23-.62-4.15-.81-5.52L399.68,277v-.11h-2.23v23.71H399V284.84c0-.33,0-1-.07-2,0-.78-.07-1.72-.1-2.74.27,2.36.53,4.51.68,5.5l2.32,14.95,0,.1h2.22V276.92h-1.57Z" transform="translate(-363.07 -272.34)"/><polygon class="cls-1" points="41.6 5.81 43.96 5.81 43.96 28.3 45.53 28.3 45.53 5.81 47.89 5.81 47.89 4.58 41.6 4.58 41.6 5.81"/><polygon class="cls-1" points="50.04 27.07 50.04 16.73 53.06 16.73 53.06 15.5 50.04 15.5 50.04 5.81 53.26 5.81 53.26 4.58 48.46 4.58 48.46 28.3 53.49 28.3 53.49 27.07 50.04 27.07"/></svg>