<?xml version="1.0" encoding="UTF-8"?>
<svg id="Calque_3" data-name="Calque 3" xmlns="http://www.w3.org/2000/svg" viewBox="0 0 2000 1000">
  <defs>
    <style>
      .cls-1 {
        fill: #1d1d1b;
        stroke-width: 0px;
      }
    </style>
  </defs>
  <path class="cls-1" d="M83.06,337.84h57.6c34.56,0,52.48,14.08,52.48,44.16v151.04c0,26.24-17.92,44.16-52.48,44.16h-32v222.72h-25.6v-462.08ZM136.18,558c18.56,0,31.36-8.96,31.36-27.52v-144.64c0-19.84-11.52-28.8-31.36-28.8h-27.52v200.96h27.52Z"/>
  <path class="cls-1" d="M225.13,337.84h57.6c30.72,0,52.48,14.08,52.48,42.88v136.32c0,24.96-7.04,42.88-39.68,45.44v1.28c23.04,1.92,39.68,13.44,39.68,41.6v194.56h-25.6v-194.56c0-17.28-9.6-33.28-35.2-33.28h-23.68v227.84h-25.6v-462.08ZM275.69,552.88c21.76,0,33.92-10.24,33.92-30.72v-136.32c0-19.84-10.88-28.8-31.36-28.8h-27.52v195.84h24.96Z"/>
  <path class="cls-1" d="M379.37,337.84h87.68v19.2h-62.08v195.84h58.24v19.2h-58.24v208.64h66.56v19.2h-92.16v-462.08ZM427.37,247.6h28.16l-37.12,61.44h-16.64l25.6-61.44Z"/>
  <path class="cls-1" d="M511.85,755.12c0,15.36,5.76,28.16,29.44,28.16,21.76,0,31.36-8.32,31.36-29.44v-79.36c0-24.32-4.48-38.4-13.44-59.52l-53.76-101.76c-10.88-20.48-16.64-44.8-16.64-62.72v-67.2c0-30.08,20.48-48,53.12-48,34.56,0,52.48,12.8,52.48,42.88v82.56h-23.04v-80c0-18.56-9.6-26.24-27.52-26.24s-27.52,12.16-27.52,27.52v71.68c0,15.36,3.2,28.8,10.24,44.16l52.48,100.48c10.88,21.76,19.2,44.16,19.2,69.76v87.04c0,29.44-14.72,47.36-55.04,47.36s-54.4-17.92-54.4-49.28v-81.92h23.04v83.84Z"/>
  <path class="cls-1" d="M631.53,337.84h87.68v19.2h-62.08v195.84h58.24v19.2h-58.24v208.64h66.56v19.2h-92.16v-462.08Z"/>
  <path class="cls-1" d="M749.93,337.84h38.4l43.52,298.24c5.12,36.48,12.8,88.96,21.12,144.64h1.28c-3.2-64-6.4-123.52-6.4-148.48v-294.4h25.6v462.08h-38.4l-44.8-294.4c-3.84-24.96-10.88-87.68-17.92-148.48h-1.28c1.28,60.16,4.48,119.04,4.48,134.4v308.48h-25.6v-462.08Z"/>
  <path class="cls-1" d="M935.52,357.04h-45.44v-19.2h116.48v19.2h-45.44v442.88h-25.6v-442.88Z"/>
  <path class="cls-1" d="M1023.2,337.84h87.68v19.2h-62.08v195.84h58.24v19.2h-58.24v208.64h66.56v19.2h-92.16v-462.08Z"/>
</svg>