<?xml version="1.0" encoding="UTF-8"?>
<svg id="written_by_-_copie" data-name="written by - copie" xmlns="http://www.w3.org/2000/svg" viewBox="0 0 2000 1000">
  <defs>
    <style>
      .cls-1 {
        fill: #1d1d1b;
        stroke-width: 0px;
      }
    </style>
  </defs>
  <path class="cls-1" d="M157.46,471.48h40.95c24.57,0,37.31,10.01,37.31,31.4v107.38c0,18.65-12.74,31.39-37.31,31.39h-22.75v158.34h-18.2v-328.51ZM195.23,628c13.19,0,22.29-6.37,22.29-19.57v-102.83c0-14.11-8.19-20.48-22.29-20.48h-19.56v142.87h19.56Z"/>
  <path class="cls-1" d="M258.47,471.48h40.95c21.84,0,37.31,10.01,37.31,30.48v96.92c0,17.74-5,30.48-28.21,32.3v.91c16.38,1.37,28.21,9.55,28.21,29.58v138.32h-18.2v-138.32c0-12.29-6.82-23.66-25.02-23.66h-16.83v161.98h-18.2v-328.51ZM294.41,624.36c15.47,0,24.11-7.28,24.11-21.84v-96.92c0-14.11-7.73-20.48-22.29-20.48h-19.56v139.23h17.75Z"/>
  <path class="cls-1" d="M368.12,471.48h62.33v13.65h-44.13v139.23h41.4v13.65h-41.4v148.33h47.32v13.65h-65.52v-328.51ZM402.24,407.32h20.02l-26.39,43.68h-11.83l18.2-43.68Z"/>
  <path class="cls-1" d="M462.3,768.14c0,10.92,4.1,20.02,20.93,20.02,15.47,0,22.3-5.92,22.3-20.93v-56.42c0-17.29-3.19-27.3-9.56-42.31l-38.22-72.35c-7.73-14.56-11.83-31.85-11.83-44.59v-47.78c0-21.39,14.56-34.13,37.77-34.13,24.57,0,37.31,9.1,37.31,30.49v58.69h-16.38v-56.88c0-13.19-6.83-18.65-19.56-18.65s-19.57,8.65-19.57,19.56v50.96c0,10.92,2.28,20.48,7.28,31.4l37.31,71.44c7.73,15.47,13.65,31.39,13.65,49.59v61.88c0,20.93-10.46,33.67-39.13,33.67s-38.68-12.74-38.68-35.04v-58.24h16.38v59.6Z"/>
  <path class="cls-1" d="M547.39,471.48h62.33v13.65h-44.13v139.23h41.4v13.65h-41.4v148.33h47.32v13.65h-65.52v-328.51Z"/>
  <path class="cls-1" d="M631.56,471.48h27.3l30.94,212.03c3.64,25.94,9.1,63.25,15.02,102.83h.91c-2.27-45.5-4.55-87.82-4.55-105.56v-209.3h18.2v328.51h-27.3l-31.85-209.3c-2.73-17.75-7.73-62.33-12.74-105.56h-.91c.91,42.77,3.19,84.63,3.19,95.55v219.31h-18.2v-328.51Z"/>
  <path class="cls-1" d="M763.51,485.13h-32.31v-13.65h82.81v13.65h-32.31v314.86h-18.2v-314.86Z"/>
  <path class="cls-1" d="M825.84,471.48h62.33v13.65h-44.13v139.23h41.4v13.65h-41.4v148.33h47.32v13.65h-65.52v-328.51Z"/>
</svg>