<?xml version="1.0" encoding="UTF-8"?>
<svg id="written_by_-_copie" data-name="written by - copie" xmlns="http://www.w3.org/2000/svg" viewBox="0 0 2000 1000">
  <defs>
    <style>
      .cls-1 {
        fill: #1d1d1b;
        stroke-width: 0px;
      }
    </style>
  </defs>
  <path class="cls-1" d="M644.03,112.65c0-22.75,14.56-35.49,38.68-35.49s36.85,12.74,36.85,35.49v54.15h-18.2v-51.42c0-13.19-4.09-24.57-18.65-24.57-12.74,0-20.48,7.73-20.48,20.48v263.9c0,12.74,7.73,20.48,20.48,20.48,14.56,0,18.65-7.73,18.65-24.57v-55.96h18.2v58.7c0,22.75-12.74,35.49-36.85,35.49s-38.68-12.74-38.68-35.49V112.65Z"/>
  <path class="cls-1" d="M822.84,373.82c0,22.75-14.1,35.49-39.58,35.49s-40.04-12.74-40.04-35.49V112.65c0-22.75,14.56-35.49,40.04-35.49s39.58,12.74,39.58,35.49v261.17ZM804.64,113.1c0-14.56-8.19-22.29-21.39-22.29s-21.84,7.73-21.84,22.29v260.26c0,14.56,8.65,22.29,21.84,22.29s21.39-7.73,21.39-22.29V113.1Z"/>
  <path class="cls-1" d="M862.88,375.64c0,10.92,4.1,20.02,20.93,20.02,15.47,0,22.29-5.92,22.29-20.93v-56.42c0-17.29-3.18-27.3-9.55-42.32l-38.22-72.35c-7.73-14.56-11.83-31.85-11.83-44.59v-47.77c0-21.39,14.56-34.13,37.77-34.13,24.57,0,37.31,9.1,37.31,30.49v58.7h-16.38v-56.88c0-13.19-6.82-18.65-19.56-18.65s-19.57,8.65-19.57,19.56v50.96c0,10.92,2.28,20.48,7.28,31.4l37.31,71.44c7.74,15.47,13.65,31.4,13.65,49.6v61.88c0,20.93-10.46,33.67-39.13,33.67s-38.68-12.74-38.68-35.04v-58.24h16.38v59.61Z"/>
  <path class="cls-1" d="M962.07,92.63h-32.3v-13.65h82.81v13.65h-32.3v314.86h-18.2V92.63Z"/>
  <path class="cls-1" d="M1104.03,78.98v294.84c0,22.75-14.11,35.49-39.58,35.49s-40.04-12.74-40.04-35.49V78.98h18.2v294.39c0,14.56,8.65,22.29,21.84,22.29s21.38-7.73,21.38-22.29V78.98h18.2Z"/>
  <path class="cls-1" d="M1135.42,78.98h30.03l20.02,197.93c3.64,34.58,6.82,76.9,8.19,116.94h.91c2.28-39.59,5-83.27,8.65-116.94l20.93-197.93h30.03v328.51h-18.2v-203.84c0-21.39.91-69.62,1.82-111.02h-.91c-4.1,43.23-9.56,95.55-12.74,130.13l-18.2,184.73h-22.75l-18.66-182.91c-2.73-28.21-10.01-94.19-11.83-131.95h-.91c-.46,43.23,1.82,90.55,1.82,111.02v203.84h-18.2V78.98Z"/>
  <path class="cls-1" d="M1285.57,78.98h62.34v13.65h-44.14v139.23h41.41v13.65h-41.41v148.33h47.32v13.65h-65.52V78.98Z"/>
  <path class="cls-1" d="M1379.75,375.64c0,10.92,4.09,20.02,20.93,20.02,15.47,0,22.29-5.92,22.29-20.93v-56.42c0-17.29-3.18-27.3-9.55-42.32l-38.22-72.35c-7.73-14.56-11.83-31.85-11.83-44.59v-47.77c0-21.39,14.56-34.13,37.76-34.13,24.57,0,37.31,9.1,37.31,30.49v58.7h-16.38v-56.88c0-13.19-6.82-18.65-19.56-18.65s-19.57,8.65-19.57,19.56v50.96c0,10.92,2.28,20.48,7.28,31.4l37.31,71.44c7.74,15.47,13.65,31.4,13.65,49.6v61.88c0,20.93-10.46,33.67-39.13,33.67s-38.67-12.74-38.67-35.04v-58.24h16.38v59.61Z"/>
  <path class="cls-1" d="M1271.01,471.48h38.68c26.84,0,40.95,10.46,40.95,35.03v258.44c0,24.57-14.11,35.04-40.95,35.04h-38.68v-328.51ZM1307.87,786.34c16.38,0,24.57-5.92,24.57-20.02v-261.17c0-14.11-8.19-20.02-24.57-20.02h-18.66v301.21h18.66Z"/>
  <path class="cls-1" d="M1380.66,471.48h62.34v13.65h-44.14v139.23h41.41v13.65h-41.41v148.33h47.32v13.65h-65.52v-328.51Z"/>
</svg>