<?xml version="1.0" encoding="UTF-8"?>
<svg id="written_by_-_copie" data-name="written by - copie" xmlns="http://www.w3.org/2000/svg" viewBox="0 0 2000 1000">
  <defs>
    <style>
      .cls-1 {
        fill: #1d1d1b;
        stroke-width: 0px;
      }
    </style>
  </defs>
  <path class="cls-1" d="M302.83,471.48v294.84c0,22.75-14.11,35.49-39.59,35.49s-40.04-12.74-40.04-35.49v-294.84h18.2v294.39c0,14.56,8.65,22.29,21.84,22.29s21.39-7.74,21.39-22.29v-294.39h18.2Z"/>
  <path class="cls-1" d="M332.86,471.48h27.3l30.94,212.03c3.64,25.94,9.1,63.25,15.02,102.83h.91c-2.27-45.5-4.55-87.82-4.55-105.56v-209.3h18.2v328.51h-27.3l-31.85-209.3c-2.73-17.75-7.73-62.33-12.74-105.56h-.91c.91,42.77,3.19,84.63,3.19,95.55v219.31h-18.2v-328.51Z"/>
  <path class="cls-1" d="M501.66,471.48h62.33v13.65h-44.13v139.23h42.31v13.65h-42.31v161.98h-18.2v-328.51Z"/>
  <path class="cls-1" d="M579.01,471.48h18.2v328.51h-18.2v-328.51Z"/>
  <path class="cls-1" d="M628.6,471.48h18.2v314.86h47.77v13.65h-65.98v-328.51Z"/>
  <path class="cls-1" d="M714.14,471.48h30.03l20.02,197.93c3.64,34.58,6.83,76.9,8.19,116.94h.91c2.27-39.58,5-83.26,8.65-116.94l20.93-197.93h30.03v328.51h-18.2v-203.84c0-21.38.91-69.62,1.82-111.02h-.91c-4.1,43.23-9.56,95.55-12.74,130.13l-18.2,184.73h-22.75l-18.66-182.91c-2.73-28.21-10.01-94.18-11.83-131.95h-.91c-.46,43.23,1.82,90.55,1.82,111.02v203.84h-18.2v-328.51Z"/>
  <path class="cls-1" d="M915.25,471.48h38.68c26.84,0,40.95,10.46,40.95,35.03v258.44c0,24.57-14.11,35.04-40.95,35.04h-38.68v-328.51ZM952.1,786.34c16.38,0,24.57-5.92,24.57-20.02v-261.17c0-14.11-8.19-20.02-24.57-20.02h-18.66v301.21h18.66Z"/>
  <path class="cls-1" d="M1024.9,471.48h62.34v13.65h-44.14v139.23h41.41v13.65h-41.41v148.33h47.32v13.65h-65.52v-328.51Z"/>
</svg>