<?xml version="1.0" encoding="UTF-8"?>
<svg id="Calque_3" data-name="Calque 3" xmlns="http://www.w3.org/2000/svg" viewBox="0 0 2000 1000">
  <defs>
    <style>
      .cls-1 {
        fill: #1d1d1b;
        stroke-width: 0px;
      }
    </style>
  </defs>
  <path class="cls-1" d="M195.06,337.84v414.72c0,32-19.84,49.92-55.68,49.92s-56.32-17.92-56.32-49.92v-414.72h25.6v414.08c0,20.48,12.16,31.36,30.72,31.36s30.08-10.88,30.08-31.36v-414.08h25.6Z"/>
  <path class="cls-1" d="M237.3,337.84h38.4l43.52,298.24c5.12,36.48,12.8,88.96,21.12,144.64h1.28c-3.2-64-6.4-123.52-6.4-148.48v-294.4h25.6v462.08h-38.4l-44.8-294.4c-3.84-24.96-10.88-87.68-17.92-148.48h-1.28c1.28,60.16,4.48,119.04,4.48,134.4v308.48h-25.6v-462.08Z"/>
  <path class="cls-1" d="M474.73,337.84h87.68v19.2h-62.08v195.84h59.52v19.2h-59.52v227.84h-25.6v-462.08Z"/>
  <path class="cls-1" d="M583.53,337.84h25.6v462.08h-25.6v-462.08Z"/>
  <path class="cls-1" d="M653.29,337.84h25.6v442.88h67.2v19.2h-92.8v-462.08Z"/>
  <path class="cls-1" d="M773.6,337.84h42.24l28.16,278.4c5.12,48.64,9.6,108.16,11.52,164.48h1.28c3.2-55.68,7.04-117.12,12.16-164.48l29.44-278.4h42.24v462.08h-25.6v-286.72c0-30.08,1.28-97.92,2.56-156.16h-1.28c-5.76,60.8-13.44,134.4-17.92,183.04l-25.6,259.84h-32l-26.24-257.28c-3.84-39.68-14.08-132.48-16.64-185.6h-1.28c-.64,60.8,2.56,127.36,2.56,156.16v286.72h-25.6v-462.08Z"/>
  <path class="cls-1" d="M1056.48,337.84h54.4c37.76,0,57.6,14.72,57.6,49.28v363.52c0,34.56-19.84,49.28-57.6,49.28h-54.4v-462.08ZM1108.32,780.72c23.04,0,34.56-8.32,34.56-28.16v-367.36c0-19.84-11.52-28.16-34.56-28.16h-26.24v423.68h26.24Z"/>
  <path class="cls-1" d="M1210.72,337.84h87.68v19.2h-62.08v195.84h58.24v19.2h-58.24v208.64h66.56v19.2h-92.16v-462.08Z"/>
</svg>