<?xml version="1.0" encoding="UTF-8"?>
<svg id="Calque_3" data-name="Calque 3" xmlns="http://www.w3.org/2000/svg" viewBox="0 0 2000 1000">
  <defs>
    <style>
      .cls-1 {
        fill: #1d1d1b;
        stroke-width: 0px;
      }
    </style>
  </defs>
  <path class="cls-1" d="M83.06,337.84h87.68v19.2h-62.08v195.84h59.52v19.2h-59.52v227.84h-25.6v-462.08Z"/>
  <path class="cls-1" d="M191.86,337.84h25.6v462.08h-25.6v-462.08Z"/>
  <path class="cls-1" d="M261.62,337.84h25.6v442.88h67.2v19.2h-92.8v-462.08Z"/>
  <path class="cls-1" d="M381.93,337.84h42.24l28.16,278.4c5.12,48.64,9.6,108.16,11.52,164.48h1.28c3.2-55.68,7.04-117.12,12.16-164.48l29.44-278.4h42.24v462.08h-25.6v-286.72c0-30.08,1.28-97.92,2.56-156.16h-1.28c-5.76,60.8-13.44,134.4-17.92,183.04l-25.6,259.84h-32l-26.24-257.28c-3.84-39.68-14.08-132.48-16.64-185.6h-1.28c-.64,60.8,2.56,127.36,2.56,156.16v286.72h-25.6v-462.08Z"/>
</svg>