<?xml version="1.0" encoding="UTF-8"?>
<svg id="Calque_3" data-name="Calque 3" xmlns="http://www.w3.org/2000/svg" viewBox="0 0 2000 1000">
  <defs>
    <style>
      .cls-1 {
        fill: #1d1d1b;
        stroke-width: 0px;
      }
    </style>
  </defs>
  <path class="cls-1" d="M83.06,337.84h57.6c34.56,0,52.48,14.08,52.48,44.16v151.04c0,26.24-17.92,44.16-52.48,44.16h-32v222.72h-25.6v-462.08ZM136.18,558c18.56,0,31.36-8.96,31.36-27.52v-144.64c0-19.84-11.52-28.8-31.36-28.8h-27.52v200.96h27.52Z"/>
  <path class="cls-1" d="M225.13,337.84h57.6c30.72,0,52.48,14.08,52.48,42.88v136.32c0,24.96-7.04,42.88-39.68,45.44v1.28c23.04,1.92,39.68,13.44,39.68,41.6v194.56h-25.6v-194.56c0-17.28-9.6-33.28-35.2-33.28h-23.68v227.84h-25.6v-462.08ZM275.69,552.88c21.76,0,33.92-10.24,33.92-30.72v-136.32c0-19.84-10.88-28.8-31.36-28.8h-27.52v195.84h24.96Z"/>
  <path class="cls-1" d="M491.37,752.56c0,32-19.84,49.92-55.68,49.92s-56.32-17.92-56.32-49.92v-367.36c0-32,20.48-49.92,56.32-49.92s55.68,17.92,55.68,49.92v367.36ZM465.77,385.84c0-20.48-11.52-31.36-30.08-31.36s-30.72,10.88-30.72,31.36v366.08c0,20.48,12.16,31.36,30.72,31.36s30.08-10.88,30.08-31.36v-366.08Z"/>
  <path class="cls-1" d="M533.61,337.84h54.4c37.76,0,57.6,14.72,57.6,49.28v363.52c0,34.56-19.84,49.28-57.6,49.28h-54.4v-462.08ZM585.45,780.72c23.04,0,34.56-8.32,34.56-28.16v-367.36c0-19.84-11.52-28.16-34.56-28.16h-26.24v423.68h26.24Z"/>
  <path class="cls-1" d="M799.85,337.84v414.72c0,32-19.84,49.92-55.68,49.92s-56.32-17.92-56.32-49.92v-414.72h25.6v414.08c0,20.48,12.16,31.36,30.72,31.36s30.08-10.88,30.08-31.36v-414.08h25.6Z"/>
  <path class="cls-1" d="M833.12,385.2c0-32,20.48-49.92,54.4-49.92s51.84,17.92,51.84,49.92v76.16h-25.6v-72.32c0-18.56-5.76-34.56-26.24-34.56-17.92,0-28.8,10.88-28.8,28.8v371.2c0,17.92,10.88,28.8,28.8,28.8,20.48,0,26.24-10.88,26.24-34.56v-78.72h25.6v82.56c0,32-17.92,49.92-51.84,49.92s-54.4-17.92-54.4-49.92v-367.36Z"/>
  <path class="cls-1" d="M992.48,357.04h-45.44v-19.2h116.48v19.2h-45.44v442.88h-25.6v-442.88Z"/>
  <path class="cls-1" d="M1082.08,337.84h25.6v462.08h-25.6v-462.08Z"/>
  <path class="cls-1" d="M1263.84,752.56c0,32-19.84,49.92-55.68,49.92s-56.32-17.92-56.32-49.92v-367.36c0-32,20.48-49.92,56.32-49.92s55.68,17.92,55.68,49.92v367.36ZM1238.24,385.84c0-20.48-11.52-31.36-30.08-31.36s-30.72,10.88-30.72,31.36v366.08c0,20.48,12.16,31.36,30.72,31.36s30.08-10.88,30.08-31.36v-366.08Z"/>
  <path class="cls-1" d="M1306.08,337.84h38.4l43.52,298.24c5.12,36.48,12.8,88.96,21.12,144.64h1.28c-3.2-64-6.4-123.52-6.4-148.48v-294.4h25.6v462.08h-38.4l-44.8-294.4c-3.84-24.96-10.88-87.68-17.92-148.48h-1.28c1.28,60.16,4.48,119.04,4.48,134.4v308.48h-25.6v-462.08Z"/>
</svg>