<?xml version="1.0" encoding="UTF-8"?>
<svg id="written_by_-_copie" data-name="written by - copie" xmlns="http://www.w3.org/2000/svg" viewBox="0 0 2000 1000">
  <defs>
    <style>
      .cls-1 {
        fill: #1d1d1b;
        stroke-width: 0px;
      }
    </style>
  </defs>
  <path class="cls-1" d="M1095.84,112.65c0-22.75,14.56-35.49,38.67-35.49s36.86,12.74,36.86,35.49v54.15h-18.2v-51.42c0-13.19-4.1-24.57-18.66-24.57-12.74,0-20.48,7.73-20.48,20.48v263.9c0,12.74,7.74,20.48,20.48,20.48,14.56,0,18.66-7.73,18.66-24.57v-55.96h18.2v58.7c0,22.75-12.74,35.49-36.86,35.49s-38.67-12.74-38.67-35.49V112.65Z"/>
  <path class="cls-1" d="M1195.03,78.98h18.2v152.88h43.23V78.98h18.2v328.51h-18.2v-161.98h-43.23v161.98h-18.2V78.98Z"/>
  <path class="cls-1" d="M1304.68,78.98h62.34v13.65h-44.14v139.23h41.41v13.65h-41.41v148.33h47.32v13.65h-65.52V78.98Z"/>
  <path class="cls-1" d="M1388.86,78.98h62.34v13.65h-44.14v139.23h42.32v13.65h-42.32v161.98h-18.2V78.98Z"/>
  <path class="cls-1" d="M490.69,471.48h38.68c26.84,0,40.95,10.46,40.95,35.03v258.44c0,24.57-14.1,35.04-40.95,35.04h-38.68v-328.51ZM527.55,786.34c16.38,0,24.57-5.92,24.57-20.02v-261.17c0-14.11-8.19-20.02-24.57-20.02h-18.65v301.21h18.65Z"/>
  <path class="cls-1" d="M600.35,471.48h62.33v13.65h-44.13v139.23h41.4v13.65h-41.4v148.33h47.32v13.65h-65.52v-328.51ZM634.47,407.32h20.02l-26.39,43.68h-11.83l18.2-43.68Z"/>
  <path class="cls-1" d="M678.15,505.15c0-22.75,14.56-35.49,38.68-35.49s36.85,12.74,36.85,35.49v54.14h-18.2v-51.42c0-13.19-4.09-24.57-18.65-24.57-12.74,0-20.48,7.73-20.48,20.48v263.9c0,12.74,7.73,20.47,20.48,20.47,14.56,0,18.65-7.74,18.65-24.57v-55.96h18.2v58.7c0,22.75-12.74,35.49-36.85,35.49s-38.68-12.74-38.68-35.49v-261.17Z"/>
  <path class="cls-1" d="M856.96,766.32c0,22.75-14.11,35.49-39.59,35.49s-40.04-12.74-40.04-35.49v-261.17c0-22.75,14.56-35.49,40.04-35.49s39.59,12.74,39.59,35.49v261.17ZM838.76,505.6c0-14.56-8.19-22.3-21.39-22.3s-21.84,7.73-21.84,22.3v260.26c0,14.56,8.65,22.29,21.84,22.29s21.39-7.74,21.39-22.29v-260.26Z"/>
  <path class="cls-1" d="M886.99,471.48h40.95c21.84,0,37.31,10.01,37.31,30.48v96.92c0,17.74-5,30.48-28.21,32.3v.91c16.38,1.37,28.21,9.55,28.21,29.58v138.32h-18.2v-138.32c0-12.29-6.83-23.66-25.03-23.66h-16.83v161.98h-18.2v-328.51ZM922.94,624.36c15.47,0,24.12-7.28,24.12-21.84v-96.92c0-14.11-7.74-20.48-22.3-20.48h-19.56v139.23h17.75Z"/>
  <path class="cls-1" d="M1049.43,703.98h-45.04l-10.01,96.01h-16.38l36.85-328.51h25.48l37.76,328.51h-18.2l-10.47-96.01ZM1048.06,690.33l-11.38-107.84c-3.64-32.76-8.19-65.97-9.1-99.19h-.91c-3.64,32.76-5,66.43-8.64,99.19l-11.83,107.84h41.86Z"/>
  <path class="cls-1" d="M1099.02,485.13h-32.3v-13.65h82.81v13.65h-32.3v314.86h-18.2v-314.86Z"/>
  <path class="cls-1" d="M1161.36,471.48h62.34v13.65h-44.14v139.23h41.41v13.65h-41.41v148.33h47.32v13.65h-65.52v-328.51Z"/>
  <path class="cls-1" d="M1325.16,471.48v294.84c0,22.75-14.11,35.49-39.58,35.49s-40.04-12.74-40.04-35.49v-294.84h18.2v294.39c0,14.56,8.65,22.29,21.84,22.29s21.38-7.74,21.38-22.29v-294.39h18.2Z"/>
  <path class="cls-1" d="M1355.18,471.48h40.95c21.84,0,37.31,10.01,37.31,30.48v96.92c0,17.74-5,30.48-28.21,32.3v.91c16.38,1.37,28.21,9.55,28.21,29.58v138.32h-18.2v-138.32c0-12.29-6.83-23.66-25.03-23.66h-16.83v161.98h-18.2v-328.51ZM1391.13,624.36c15.47,0,24.12-7.28,24.12-21.84v-96.92c0-14.11-7.74-20.48-22.29-20.48h-19.57v139.23h17.75Z"/>
</svg>