<svg id="ecrit_par_-_copie" data-name="ecrit par - copie" xmlns="http://www.w3.org/2000/svg" viewBox="0 0 14.61 23.85"><defs><style>.cls-1{fill:#1d1d1b;}</style></defs><path class="cls-1" d="M405.6,298.07a1.31,1.31,0,0,1-1.43,1.47,1.34,1.34,0,0,1-1.47-1.47V276.92h-1.58V298.1c0,1.69,1.11,2.66,3.05,2.66s3-1,3-2.66V276.92H405.6Z" transform="translate(-401.12 -276.92)"/><path class="cls-1" d="M414.15,276.92V292c0,1,.11,3.17.24,5.7-.34-2.23-.62-4.15-.82-5.52L411.32,277l0-.11h-2.22v23.71h1.58V284.84c0-.33,0-1-.07-2,0-.78-.07-1.72-.11-2.74.28,2.36.53,4.51.69,5.5l2.32,14.95,0,.1h2.22V276.92Z" transform="translate(-401.12 -276.92)"/></svg>