<?xml version="1.0" encoding="UTF-8"?>
<svg id="written_by_-_copie" data-name="written by - copie" xmlns="http://www.w3.org/2000/svg" viewBox="0 0 2000 1000">
  <defs>
    <style>
      .cls-1 {
        fill: #1d1d1b;
        stroke-width: 0px;
      }
    </style>
  </defs>
  <path class="cls-1" d="M562.26,471.48v294.84c0,22.75-14.1,35.49-39.58,35.49s-40.04-12.74-40.04-35.49v-294.84h18.2v294.39c0,14.56,8.65,22.29,21.84,22.29s21.39-7.74,21.39-22.29v-294.39h18.2Z"/>
  <path class="cls-1" d="M592.29,471.48h27.3l30.94,212.03c3.64,25.94,9.1,63.25,15.02,102.83h.91c-2.27-45.5-4.55-87.82-4.55-105.56v-209.3h18.2v328.51h-27.3l-31.85-209.3c-2.73-17.75-7.73-62.33-12.74-105.56h-.91c.91,42.77,3.19,84.63,3.19,95.55v219.31h-18.2v-328.51Z"/>
</svg>