<?xml version="1.0" encoding="UTF-8"?>
<svg id="written_by_-_copie" data-name="written by - copie" xmlns="http://www.w3.org/2000/svg" viewBox="0 0 2000 1000">
  <defs>
    <style>
      .cls-1 {
        fill: #1d1d1b;
        stroke-width: 0px;
      }
    </style>
  </defs>
  <path class="cls-1" d="M48.6,112.65c0-22.75,14.56-35.49,38.68-35.49s36.85,12.74,36.85,35.49v54.15h-18.2v-51.42c0-13.19-4.09-24.57-18.65-24.57-12.74,0-20.48,7.73-20.48,20.48v263.9c0,12.74,7.73,20.48,20.48,20.48,14.56,0,18.65-7.73,18.65-24.57v-55.96h18.2v58.7c0,22.75-12.74,35.49-36.85,35.49s-38.68-12.74-38.68-35.49V112.65Z"/>
  <path class="cls-1" d="M227.41,373.82c0,22.75-14.1,35.49-39.58,35.49s-40.04-12.74-40.04-35.49V112.65c0-22.75,14.56-35.49,40.04-35.49s39.58,12.74,39.58,35.49v261.17ZM209.21,113.1c0-14.56-8.19-22.29-21.39-22.29s-21.84,7.73-21.84,22.29v260.26c0,14.56,8.65,22.29,21.84,22.29s21.39-7.73,21.39-22.29V113.1Z"/>
  <path class="cls-1" d="M246.52,287.37h42.31v11.83h-42.31v-11.83Z"/>
  <path class="cls-1" d="M307.94,78.98h40.95c24.57,0,37.31,10.01,37.31,31.4v107.38c0,18.66-12.74,31.4-37.31,31.4h-22.75v158.34h-18.2V78.98ZM345.7,235.5c13.19,0,22.29-6.37,22.29-19.56v-102.83c0-14.1-8.19-20.48-22.29-20.48h-19.56v142.87h19.56Z"/>
  <path class="cls-1" d="M408.94,78.98h40.95c21.84,0,37.31,10.01,37.31,30.48v96.92c0,17.75-5,30.49-28.21,32.31v.91c16.38,1.36,28.21,9.55,28.21,29.58v138.32h-18.2v-138.32c0-12.29-6.82-23.66-25.02-23.66h-16.83v161.98h-18.2V78.98ZM444.89,231.86c15.47,0,24.11-7.28,24.11-21.84v-96.92c0-14.1-7.73-20.48-22.29-20.48h-19.56v139.23h17.75Z"/>
  <path class="cls-1" d="M598.22,373.82c0,22.75-14.11,35.49-39.59,35.49s-40.04-12.74-40.04-35.49V112.65c0-22.75,14.56-35.49,40.04-35.49s39.59,12.74,39.59,35.49v261.17ZM580.02,113.1c0-14.56-8.19-22.29-21.39-22.29s-21.84,7.73-21.84,22.29v260.26c0,14.56,8.65,22.29,21.84,22.29s21.39-7.73,21.39-22.29V113.1Z"/>
  <path class="cls-1" d="M628.25,78.98h38.68c26.84,0,40.95,10.46,40.95,35.04v258.44c0,24.57-14.1,35.04-40.95,35.04h-38.68V78.98ZM665.1,393.84c16.38,0,24.57-5.92,24.57-20.02V112.65c0-14.1-8.19-20.02-24.57-20.02h-18.65v301.21h18.65Z"/>
  <path class="cls-1" d="M817.53,78.98v294.84c0,22.75-14.11,35.49-39.59,35.49s-40.04-12.74-40.04-35.49V78.98h18.2v294.39c0,14.56,8.65,22.29,21.84,22.29s21.39-7.73,21.39-22.29V78.98h18.2Z"/>
  <path class="cls-1" d="M848.92,78.98h18.2v328.51h-18.2V78.98Z"/>
  <path class="cls-1" d="M912.62,92.63h-32.3v-13.65h82.81v13.65h-32.31v314.86h-18.2V92.63Z"/>
  <path class="cls-1" d="M676.03,471.48h40.95c24.57,0,37.31,10.01,37.31,31.4v107.38c0,18.65-12.74,31.39-37.31,31.39h-22.75v158.34h-18.2v-328.51ZM713.79,628c13.19,0,22.29-6.37,22.29-19.57v-102.83c0-14.11-8.19-20.48-22.29-20.48h-19.56v142.87h19.56Z"/>
  <path class="cls-1" d="M825.27,703.98h-45.05l-10.01,96.01h-16.38l36.86-328.51h25.48l37.77,328.51h-18.2l-10.46-96.01ZM823.9,690.33l-11.38-107.84c-3.64-32.76-8.19-65.97-9.1-99.19h-.91c-3.64,32.76-5.01,66.43-8.65,99.19l-11.83,107.84h41.86Z"/>
  <path class="cls-1" d="M865.3,471.48h40.95c21.84,0,37.31,10.01,37.31,30.48v96.92c0,17.74-5,30.48-28.21,32.3v.91c16.38,1.37,28.21,9.55,28.21,29.58v138.32h-18.2v-138.32c0-12.29-6.83-23.66-25.03-23.66h-16.83v161.98h-18.2v-328.51ZM901.25,624.36c15.47,0,24.12-7.28,24.12-21.84v-96.92c0-14.11-7.74-20.48-22.3-20.48h-19.56v139.23h17.75Z"/>
</svg>