<?xml version="1.0" encoding="UTF-8"?>
<svg id="avec" xmlns="http://www.w3.org/2000/svg" viewBox="0 0 25.89 23.98">
  <defs>
    <style>
      .cls-1 {
        fill: #1d1d1b;
        stroke-width: 0px;
      }
    </style>
  </defs>
  <path class="cls-1" d="M4.79.13h-2.08L.02,23.71l-.02.14h1.45l.73-6.86h3.06l.75,6.75v.11h1.59L4.81.24v-.11ZM4.13,6.84c.05.45.11.91.16,1.36l.81,7.56h-2.77l.85-7.56c.13-1.18.23-2.39.32-3.56.06-.76.12-1.53.19-2.29.09,1.51.27,3.02.45,4.5Z"/>
  <path class="cls-1" d="M10.69,15.71c-.11,1.06-.18,2.14-.25,3.18-.06.93-.13,1.89-.22,2.85-.05-.62-.09-1.23-.14-1.85-.1-1.35-.2-2.75-.34-4.18L8.15.24v-.11h-1.59l2.6,23.6v.11h2.03L13.79.27l.02-.14h-1.55l-1.57,15.58Z"/>
  <polygon class="cls-1" points="16.08 12.28 19.1 12.28 19.1 11.05 16.08 11.05 16.08 1.35 19.29 1.35 19.29 .13 14.5 .13 14.5 23.85 19.53 23.85 19.53 22.62 16.08 22.62 16.08 12.28"/>
  <path class="cls-1" d="M25.89,6.65v-3.99c0-1.72-1-2.66-2.81-2.66s-2.94.99-2.94,2.66v18.66c0,1.67,1.1,2.66,2.94,2.66s2.81-.94,2.81-2.66v-4.32h-1.58v4.12c0,1.22-.31,1.63-1.23,1.63-.86,0-1.37-.5-1.37-1.34V2.56c0-.84.51-1.34,1.37-1.34s1.23.53,1.23,1.63v3.8h1.58Z"/>
</svg>