<?xml version="1.0" encoding="UTF-8"?>
<svg id="Calque_3" data-name="Calque 3" xmlns="http://www.w3.org/2000/svg" viewBox="0 0 2000 1000">
  <defs>
    <style>
      .cls-1 {
        fill: #1d1d1b;
        stroke-width: 0px;
      }
    </style>
  </defs>
  <path class="cls-1" d="M157.3,664.88h-63.36l-14.08,135.04h-23.04l51.84-462.08h35.84l53.12,462.08h-25.6l-14.72-135.04ZM155.38,645.68l-16-151.68c-5.12-46.08-11.52-92.8-12.8-139.52h-1.28c-5.12,46.08-7.04,93.44-12.16,139.52l-16.64,151.68h58.88Z"/>
  <path class="cls-1" d="M184.18,337.84h25.6l30.72,304.64c4.48,47.36,7.04,92.16,10.88,138.24h1.28c5.12-46.08,6.4-92.16,10.88-138.24l30.08-304.64h24.96l-49.92,462.08h-34.56l-49.92-462.08Z"/>
  <path class="cls-1" d="M337.78,337.84h87.68v19.2h-62.08v195.84h58.24v19.2h-58.24v208.64h66.56v19.2h-92.16v-462.08Z"/>
  <path class="cls-1" d="M447.22,385.2c0-32,20.48-49.92,54.4-49.92s51.84,17.92,51.84,49.92v76.16h-25.6v-72.32c0-18.56-5.76-34.56-26.24-34.56-17.92,0-28.8,10.88-28.8,28.8v371.2c0,17.92,10.88,28.8,28.8,28.8,20.48,0,26.24-10.88,26.24-34.56v-78.72h25.6v82.56c0,32-17.92,49.92-51.84,49.92s-54.4-17.92-54.4-49.92v-367.36Z"/>
</svg>