<?xml version="1.0" encoding="UTF-8"?>
<svg id="written_by_-_copie" data-name="written by - copie" xmlns="http://www.w3.org/2000/svg" viewBox="0 0 2000 1000">
  <defs>
    <style>
      .cls-1 {
        fill: #1d1d1b;
        stroke-width: 0px;
      }
    </style>
  </defs>
  <path class="cls-1" d="M404.83,703.98h-45.05l-10.01,96.01h-16.38l36.86-328.51h25.48l37.77,328.51h-18.2l-10.46-96.01ZM403.47,690.33l-11.38-107.84c-3.64-32.76-8.19-65.97-9.1-99.19h-.91c-3.64,32.76-5.01,66.43-8.65,99.19l-11.83,107.84h41.86Z"/>
  <path class="cls-1" d="M423.94,471.48h18.2l21.84,216.58c3.19,33.67,5,65.52,7.73,98.28h.91c3.64-32.76,4.55-65.52,7.73-98.28l21.39-216.58h17.75l-35.49,328.51h-24.57l-35.49-328.51Z"/>
  <path class="cls-1" d="M533.14,471.48h62.33v13.65h-44.13v139.23h41.4v13.65h-41.4v148.33h47.32v13.65h-65.52v-328.51Z"/>
  <path class="cls-1" d="M610.94,505.15c0-22.75,14.56-35.49,38.68-35.49s36.85,12.74,36.85,35.49v54.14h-18.2v-51.42c0-13.19-4.09-24.57-18.65-24.57-12.74,0-20.48,7.73-20.48,20.48v263.9c0,12.74,7.73,20.47,20.48,20.47,14.56,0,18.65-7.74,18.65-24.57v-55.96h18.2v58.7c0,22.75-12.74,35.49-36.85,35.49s-38.68-12.74-38.68-35.49v-261.17Z"/>
</svg>