<?xml version="1.0" encoding="UTF-8"?>
<svg id="written_by_-_copie" data-name="written by - copie" xmlns="http://www.w3.org/2000/svg" viewBox="0 0 2000 1000">
  <defs>
    <style>
      .cls-1 {
        fill: #1d1d1b;
        stroke-width: 0px;
      }
    </style>
  </defs>
  <path class="cls-1" d="M164.92,78.98h38.68c26.84,0,40.95,10.46,40.95,35.04v258.44c0,24.57-14.1,35.04-40.95,35.04h-38.68V78.98ZM201.77,393.84c16.38,0,24.57-5.92,24.57-20.02V112.65c0-14.1-8.19-20.02-24.57-20.02h-18.65v301.21h18.65Z"/>
  <path class="cls-1" d="M275.94,78.98h18.2v328.51h-18.2V78.98Z"/>
  <path class="cls-1" d="M325.53,78.98h40.95c21.84,0,37.31,10.01,37.31,30.48v96.92c0,17.75-5,30.49-28.21,32.31v.91c16.38,1.36,28.21,9.55,28.21,29.58v138.32h-18.2v-138.32c0-12.29-6.82-23.66-25.02-23.66h-16.83v161.98h-18.2V78.98ZM361.48,231.86c15.47,0,24.12-7.28,24.12-21.84v-96.92c0-14.1-7.73-20.48-22.29-20.48h-19.56v139.23h17.74Z"/>
  <path class="cls-1" d="M435.19,78.98h62.33v13.65h-44.13v139.23h41.4v13.65h-41.4v148.33h47.32v13.65h-65.52V78.98Z"/>
  <path class="cls-1" d="M512.99,112.65c0-22.75,14.56-35.49,38.68-35.49s36.85,12.74,36.85,35.49v54.15h-18.2v-51.42c0-13.19-4.09-24.57-18.65-24.57-12.74,0-20.48,7.73-20.48,20.48v263.9c0,12.74,7.73,20.48,20.48,20.48,14.56,0,18.65-7.73,18.65-24.57v-55.96h18.2v58.7c0,22.75-12.74,35.49-36.85,35.49s-38.68-12.74-38.68-35.49V112.65Z"/>
  <path class="cls-1" d="M626.28,92.63h-32.31v-13.65h82.81v13.65h-32.31v314.86h-18.2V92.63Z"/>
  <path class="cls-1" d="M688.62,78.98h62.33v13.65h-44.13v139.23h41.4v13.65h-41.4v148.33h47.32v13.65h-65.52V78.98Z"/>
  <path class="cls-1" d="M852.42,78.98v294.84c0,22.75-14.1,35.49-39.58,35.49s-40.04-12.74-40.04-35.49V78.98h18.2v294.39c0,14.56,8.65,22.29,21.84,22.29s21.39-7.73,21.39-22.29V78.98h18.2Z"/>
  <path class="cls-1" d="M882.45,78.98h40.95c21.84,0,37.31,10.01,37.31,30.48v96.92c0,17.75-5,30.49-28.21,32.31v.91c16.38,1.36,28.21,9.55,28.21,29.58v138.32h-18.2v-138.32c0-12.29-6.83-23.66-25.03-23.66h-16.83v161.98h-18.2V78.98ZM918.39,231.86c15.47,0,24.12-7.28,24.12-21.84v-96.92c0-14.1-7.74-20.48-22.29-20.48h-19.57v139.23h17.75Z"/>
  <path class="cls-1" d="M1043.06,78.98h38.68c26.84,0,40.95,10.46,40.95,35.04v258.44c0,24.57-14.11,35.04-40.95,35.04h-38.68V78.98ZM1079.91,393.84c16.38,0,24.57-5.92,24.57-20.02V112.65c0-14.1-8.19-20.02-24.57-20.02h-18.66v301.21h18.66Z"/>
  <path class="cls-1" d="M1152.71,78.98h62.34v13.65h-44.14v139.23h41.41v13.65h-41.41v148.33h47.32v13.65h-65.52V78.98Z"/>
  <path class="cls-1" d="M1287.85,78.98h18.2v314.86h47.78v13.65h-65.98V78.98Z"/>
  <path class="cls-1" d="M1424.8,311.48h-45.04l-10.01,96.01h-16.38l36.85-328.51h25.48l37.76,328.51h-18.2l-10.47-96.01ZM1423.44,297.83l-11.38-107.84c-3.64-32.76-8.19-65.98-9.1-99.19h-.91c-3.64,32.76-5,66.43-8.64,99.19l-11.83,107.84h41.86Z"/>
  <path class="cls-1" d="M300.52,471.48h40.95c24.57,0,37.31,10.01,37.31,31.4v107.38c0,18.65-12.74,31.39-37.31,31.39h-22.75v158.34h-18.2v-328.51ZM338.28,628c13.19,0,22.29-6.37,22.29-19.57v-102.83c0-14.11-8.19-20.48-22.29-20.48h-19.56v142.87h19.56Z"/>
  <path class="cls-1" d="M401.52,471.48h18.2v152.88h43.23v-152.88h18.2v328.51h-18.2v-161.98h-43.23v161.98h-18.2v-328.51Z"/>
  <path class="cls-1" d="M590.8,766.32c0,22.75-14.11,35.49-39.59,35.49s-40.04-12.74-40.04-35.49v-261.17c0-22.75,14.56-35.49,40.04-35.49s39.59,12.74,39.59,35.49v261.17ZM572.6,505.6c0-14.56-8.19-22.3-21.39-22.3s-21.84,7.73-21.84,22.3v260.26c0,14.56,8.65,22.29,21.84,22.29s21.39-7.74,21.39-22.29v-260.26Z"/>
  <path class="cls-1" d="M634.93,485.13h-32.31v-13.65h82.81v13.65h-32.31v314.86h-18.2v-314.86Z"/>
  <path class="cls-1" d="M776.89,766.32c0,22.75-14.1,35.49-39.58,35.49s-40.04-12.74-40.04-35.49v-261.17c0-22.75,14.56-35.49,40.04-35.49s39.58,12.74,39.58,35.49v261.17ZM758.69,505.6c0-14.56-8.19-22.3-21.39-22.3s-21.84,7.73-21.84,22.3v260.26c0,14.56,8.65,22.29,21.84,22.29s21.39-7.74,21.39-22.29v-260.26Z"/>
  <path class="cls-1" d="M850.15,641.65h36.4v150.15l-2.28,1.37c-7.28,4.55-20.48,8.65-37.31,8.65-25.48,0-40.04-12.74-40.04-35.49v-261.17c0-22.75,14.56-35.49,40.04-35.49s39.59,12.74,39.59,35.49v53.23h-18.2v-50.96c0-14.56-9.1-24.11-21.39-24.11s-21.84,9.56-21.84,24.11v260.26c0,12.74,9.55,20.47,21.84,20.47,8.65,0,16.83-2.73,21.39-5.46v-127.4h-18.2v-13.65Z"/>
  <path class="cls-1" d="M916.58,471.48h40.95c21.84,0,37.31,10.01,37.31,30.48v96.92c0,17.74-5,30.48-28.21,32.3v.91c16.38,1.37,28.21,9.55,28.21,29.58v138.32h-18.2v-138.32c0-12.29-6.83-23.66-25.03-23.66h-16.83v161.98h-18.2v-328.51ZM952.52,624.36c15.47,0,24.12-7.28,24.12-21.84v-96.92c0-14.11-7.74-20.48-22.29-20.48h-19.57v139.23h17.75Z"/>
  <path class="cls-1" d="M1079.01,703.98h-45.04l-10.01,96.01h-16.38l36.85-328.51h25.48l37.76,328.51h-18.2l-10.47-96.01ZM1077.64,690.33l-11.38-107.84c-3.64-32.76-8.19-65.97-9.1-99.19h-.91c-3.64,32.76-5,66.43-8.64,99.19l-11.83,107.84h41.86Z"/>
  <path class="cls-1" d="M1119.05,471.48h40.95c24.57,0,37.31,10.01,37.31,31.4v107.38c0,18.65-12.74,31.39-37.31,31.39h-22.75v158.34h-18.2v-328.51ZM1156.81,628c13.2,0,22.29-6.37,22.29-19.57v-102.83c0-14.11-8.19-20.48-22.29-20.48h-19.57v142.87h19.57Z"/>
  <path class="cls-1" d="M1220.05,471.48h18.2v152.88h43.23v-152.88h18.2v328.51h-18.2v-161.98h-43.23v161.98h-18.2v-328.51Z"/>
  <path class="cls-1" d="M1331.07,471.48h18.2v328.51h-18.2v-328.51Z"/>
  <path class="cls-1" d="M1380.66,471.48h62.34v13.65h-44.14v139.23h41.41v13.65h-41.41v148.33h47.32v13.65h-65.52v-328.51Z"/>
</svg>