<svg xmlns="http://www.w3.org/2000/svg" viewBox="0 0 29.42 56.5">
  <g data-name="Calque 2">
    <path d="M1.58 16.73h3.01V15.5H1.58V5.81h3.21V4.58H0V28.3h5.03v-1.23H1.58V16.73zM4.29 0H2.53L1.1 3.37h1.12L4.29 0zm7.1 25.77v-4.32H9.81v4.12c0 1.22-.31 1.63-1.23 1.63a1.24 1.24 0 0 1-1.37-1.33V7a1.24 1.24 0 0 1 1.37-1.32c.83 0 1.23.53 1.23 1.63v3.79h1.58v-4c0-1.71-1-2.66-2.81-2.66s-2.94 1-2.94 2.66v18.67c0 1.66 1.1 2.66 2.94 2.66s2.81-.95 2.81-2.66Zm3.02-9.04h1.1a1.49 1.49 0 0 1 1.7 1.56v10h1.57v-10a2 2 0 0 0-1.58-2.14c1.38-.32 1.58-1.35 1.58-2.34V6.89c0-1.45-1.06-2.31-2.84-2.31h-3.11V28.3h1.58Zm0-10.92h1.3c1 0 1.5.42 1.5 1.34v6.92c0 .95-.55 1.43-1.64 1.43h-1.16Zm6.47-1.23h1.58V28.3h-1.58zm2.26 0v1.23h2.35V28.3h1.58V5.81h2.35V4.58h-6.28zm-8.87 30.57c0-1.57-.95-2.37-2.84-2.37H8.32V56.5H9.9V45.19h1.53c1.78 0 2.84-.89 2.84-2.37ZM9.9 34h1.3c1 0 1.5.44 1.5 1.34v7.34c0 1.11-.94 1.27-1.5 1.27H9.9Zm8.83-1.22h-2.07L14 56.36v.14h1.45l.73-6.86h3.05l.75 6.75v.11h1.58l-2.81-23.61Zm-.65 6.72.15 1.35.82 7.57h-2.77l.84-7.57c.14-1.17.23-2.38.32-3.56.06-.75.12-1.52.19-2.29.09 1.51.27 3 .45 4.5Zm7.07-6.72H22V56.5h1.58V44.93h1.1a1.48 1.48 0 0 1 1.7 1.56v10H28v-10a2 2 0 0 0-1.58-2.14C27.79 44 28 43 28 42v-6.91c0-1.45-1.07-2.31-2.85-2.31ZM23.62 34h1.3c1 0 1.5.42 1.5 1.34v6.92c0 .95-.55 1.43-1.63 1.43h-1.17Z" class="cls-1" data-name="ecrit par"/>
  </g>
</svg>
