<?xml version="1.0" encoding="UTF-8"?>
<svg id="Calque_3" data-name="Calque 3" xmlns="http://www.w3.org/2000/svg" viewBox="0 0 2886 1000">
  <defs>
    <style>
      .cls-1 {
        fill: #1d1d1b;
        stroke-width: 0px;
      }
    </style>
  </defs>
  <path class="cls-1" d="M83.06,337.84h87.68v19.2h-62.08v195.84h58.24v19.2h-58.24v208.64h66.56v19.2h-92.16v-462.08Z"/>
  <path class="cls-1" d="M201.46,337.84h38.4l43.52,298.24c5.12,36.48,12.8,88.96,21.12,144.64h1.28c-3.2-64-6.4-123.52-6.4-148.48v-294.4h25.6v462.08h-38.4l-44.8-294.4c-3.84-24.96-10.88-87.68-17.92-148.48h-1.28c1.28,60.16,4.48,119.04,4.48,134.4v308.48h-25.6v-462.08Z"/>
  <path class="cls-1" d="M501.62,664.88h-63.36l-14.08,135.04h-23.04l51.84-462.08h35.84l53.12,462.08h-25.6l-14.72-135.04ZM499.7,645.68l-16-151.68c-5.12-46.08-11.52-92.8-12.8-139.52h-1.28c-5.12,46.08-7.04,93.44-12.16,139.52l-16.64,151.68h58.88Z"/>
  <path class="cls-1" d="M572.01,755.12c0,15.36,5.76,28.16,29.44,28.16,21.76,0,31.36-8.32,31.36-29.44v-79.36c0-24.32-4.48-38.4-13.44-59.52l-53.76-101.76c-10.88-20.48-16.64-44.8-16.64-62.72v-67.2c0-30.08,20.48-48,53.12-48,34.56,0,52.48,12.8,52.48,42.88v82.56h-23.04v-80c0-18.56-9.6-26.24-27.52-26.24s-27.52,12.16-27.52,27.52v71.68c0,15.36,3.2,28.8,10.24,44.16l52.48,100.48c10.88,21.76,19.2,44.16,19.2,69.76v87.04c0,29.44-14.72,47.36-55.04,47.36s-54.4-17.92-54.4-49.28v-81.92h23.04v83.84Z"/>
  <path class="cls-1" d="M705.77,755.12c0,15.36,5.76,28.16,29.44,28.16,21.76,0,31.36-8.32,31.36-29.44v-79.36c0-24.32-4.48-38.4-13.44-59.52l-53.76-101.76c-10.88-20.48-16.64-44.8-16.64-62.72v-67.2c0-30.08,20.48-48,53.12-48,34.56,0,52.48,12.8,52.48,42.88v82.56h-23.04v-80c0-18.56-9.6-26.24-27.52-26.24s-27.52,12.16-27.52,27.52v71.68c0,15.36,3.2,28.8,10.24,44.16l52.48,100.48c10.88,21.76,19.2,44.16,19.2,69.76v87.04c0,29.44-14.72,47.36-55.04,47.36s-54.4-17.92-54.4-49.28v-81.92h23.04v83.84Z"/>
  <path class="cls-1" d="M937.45,752.56c0,32-19.84,49.92-55.68,49.92s-56.32-17.92-56.32-49.92v-367.36c0-32,20.48-49.92,56.32-49.92s55.68,17.92,55.68,49.92v367.36ZM911.85,385.84c0-20.48-11.52-31.36-30.08-31.36s-30.72,10.88-30.72,31.36v366.08c0,20.48,12.16,31.36,30.72,31.36s30.08-10.88,30.08-31.36v-366.08Z"/>
  <path class="cls-1" d="M970.73,385.2c0-32,20.48-49.92,54.4-49.92s51.84,17.92,51.84,49.92v76.16h-25.6v-72.32c0-18.56-5.76-34.56-26.24-34.56-17.92,0-28.8,10.88-28.8,28.8v371.2c0,17.92,10.88,28.8,28.8,28.8,20.48,0,26.24-10.88,26.24-34.56v-78.72h25.6v82.56c0,32-17.92,49.92-51.84,49.92s-54.4-17.92-54.4-49.92v-367.36Z"/>
  <path class="cls-1" d="M1112.17,337.84h25.6v462.08h-25.6v-462.08Z"/>
  <path class="cls-1" d="M1256.17,664.88h-63.36l-14.08,135.04h-23.04l51.84-462.08h35.84l53.12,462.08h-25.6l-14.72-135.04ZM1254.25,645.68l-16-151.68c-5.12-46.08-11.52-92.8-12.8-139.52h-1.28c-5.12,46.08-7.04,93.44-12.16,139.52l-16.64,151.68h58.88Z"/>
  <path class="cls-1" d="M1325.93,357.04h-45.44v-19.2h116.48v19.2h-45.44v442.88h-25.6v-442.88Z"/>
  <path class="cls-1" d="M1415.53,337.84h25.6v462.08h-25.6v-462.08Z"/>
  <path class="cls-1" d="M1597.29,752.56c0,32-19.84,49.92-55.68,49.92s-56.32-17.92-56.32-49.92v-367.36c0-32,20.48-49.92,56.32-49.92s55.68,17.92,55.68,49.92v367.36ZM1571.69,385.84c0-20.48-11.52-31.36-30.08-31.36s-30.72,10.88-30.72,31.36v366.08c0,20.48,12.16,31.36,30.72,31.36s30.08-10.88,30.08-31.36v-366.08Z"/>
  <path class="cls-1" d="M1639.53,337.84h38.4l43.52,298.24c5.12,36.48,12.8,88.96,21.12,144.64h1.28c-3.2-64-6.4-123.52-6.4-148.48v-294.4h25.6v462.08h-38.4l-44.8-294.4c-3.84-24.96-10.88-87.68-17.92-148.48h-1.28c1.28,60.16,4.48,119.04,4.48,134.4v308.48h-25.6v-462.08Z"/>
  <path class="cls-1" d="M1939.68,664.88h-63.36l-14.08,135.04h-23.04l51.84-462.08h35.84l53.12,462.08h-25.6l-14.72-135.04ZM1937.76,645.68l-16-151.68c-5.12-46.08-11.52-92.8-12.8-139.52h-1.28c-5.12,46.08-7.04,93.44-12.16,139.52l-16.64,151.68h58.88Z"/>
  <path class="cls-1" d="M1966.56,337.84h25.6l30.72,304.64c4.48,47.36,7.04,92.16,10.88,138.24h1.28c5.12-46.08,6.4-92.16,10.88-138.24l30.08-304.64h24.96l-49.92,462.08h-34.56l-49.92-462.08Z"/>
  <path class="cls-1" d="M2120.16,337.84h87.68v19.2h-62.08v195.84h58.24v19.2h-58.24v208.64h66.56v19.2h-92.16v-462.08Z"/>
  <path class="cls-1" d="M2229.6,385.2c0-32,20.48-49.92,54.4-49.92s51.84,17.92,51.84,49.92v76.16h-25.6v-72.32c0-18.56-5.76-34.56-26.24-34.56-17.92,0-28.8,10.88-28.8,28.8v371.2c0,17.92,10.88,28.8,28.8,28.8,20.48,0,26.24-10.88,26.24-34.56v-78.72h25.6v82.56c0,32-17.92,49.92-51.84,49.92s-54.4-17.92-54.4-49.92v-367.36Z"/>
</svg>