<?xml version="1.0" encoding="UTF-8"?>
<svg id="ecrit_par_-_copie" data-name="ecrit par - copie" xmlns="http://www.w3.org/2000/svg" viewBox="0 0 116.34 23.98">
  <defs>
    <style>
      .cls-1 {
        fill: #1d1d1b;
        stroke-width: 0px;
      }
    </style>
  </defs>
  <polygon class="cls-1" points="1.58 12.28 4.59 12.28 4.59 11.05 1.58 11.05 1.58 1.35 4.79 1.35 4.79 .13 0 .13 0 23.85 5.03 23.85 5.03 22.62 1.58 22.62 1.58 12.28"/>
  <path class="cls-1" d="M11.17,15.21c0,1.03.11,3.17.24,5.69-.34-2.23-.62-4.15-.82-5.52L8.34.24l-.02-.11h-2.22v23.72h1.58v-15.79c0-.33-.03-1.04-.07-2.03-.03-.77-.07-1.72-.1-2.73.28,2.36.53,4.51.69,5.5l2.32,14.95.02.11h2.22V.13h-1.58v15.08Z"/>
  <path class="cls-1" d="M21.15.13h-2.08l-2.7,23.58-.02.14h1.45l.73-6.86h3.06l.75,6.75v.11h1.59L21.17.24v-.11ZM20.5,6.84c.05.45.11.91.16,1.36l.81,7.56h-2.77l.85-7.56c.13-1.18.23-2.39.32-3.56.06-.76.12-1.53.19-2.29.09,1.51.27,3.02.45,4.5Z"/>
  <path class="cls-1" d="M26.19,8.33c-.36-.78-.52-1.43-.52-2.19v-3.64c0-.77.51-1.27,1.3-1.27.9,0,1.3.37,1.3,1.21v4.19h1.44V2.3c0-1.55-.93-2.3-2.84-2.3-1.77,0-2.88.98-2.88,2.56v3.41c0,1,.34,2.25.88,3.24l2.78,5.16c.47,1.1.69,1.79.69,2.97v4.03c0,.99-.42,1.37-1.5,1.37-.97,0-1.4-.4-1.4-1.3v-4.38h-1.44v4.29c0,1.79.94,2.63,2.94,2.63s2.98-.83,2.98-2.53v-4.42c0-1.43-.51-2.62-1.01-3.6l-2.72-5.1Z"/>
  <path class="cls-1" d="M33.09,8.33c-.36-.78-.52-1.43-.52-2.19v-3.64c0-.77.51-1.27,1.3-1.27.9,0,1.3.37,1.3,1.21v4.19h1.44V2.3c0-1.55-.93-2.3-2.84-2.3-1.77,0-2.88.98-2.88,2.56v3.41c0,1,.34,2.25.88,3.24l2.78,5.16c.47,1.1.69,1.79.69,2.97v4.03c0,.99-.42,1.37-1.5,1.37-.97,0-1.4-.4-1.4-1.3v-4.38h-1.44v4.29c0,1.79.94,2.63,2.94,2.63s2.98-.83,2.98-2.53v-4.42c0-1.43-.51-2.62-1.01-3.6l-2.72-5.1Z"/>
  <path class="cls-1" d="M41.3,0c-1.93,0-3.04.97-3.04,2.66v18.66c0,1.69,1.11,2.66,3.04,2.66s3.01-.97,3.01-2.66V2.66c0-1.69-1.1-2.66-3.01-2.66ZM39.83,2.69c0-.93.53-1.47,1.47-1.47s1.43.52,1.43,1.47v18.59c0,.95-.51,1.47-1.43,1.47s-1.47-.53-1.47-1.47V2.69Z"/>
  <path class="cls-1" d="M48.69,0c-1.84,0-2.94.99-2.94,2.66v18.66c0,1.67,1.1,2.66,2.94,2.66s2.81-.94,2.81-2.66v-4.32h-1.58v4.12c0,1.22-.31,1.63-1.23,1.63-.86,0-1.37-.5-1.37-1.34V2.56c0-.84.51-1.34,1.37-1.34s1.23.53,1.23,1.63v3.8h1.58v-3.99c0-1.72-1-2.66-2.81-2.66Z"/>
  <rect class="cls-1" x="53.04" y=".13" width="1.58" height="23.72"/>
  <path class="cls-1" d="M60.04.13h-2.08l-2.7,23.58-.02.14h1.45l.73-6.86h3.06l.75,6.75v.11h1.59L60.05.24v-.11ZM59.38,6.84c.05.45.11.91.16,1.36l.81,7.56h-2.77l.85-7.56c.13-1.18.23-2.39.32-3.56.06-.76.12-1.53.19-2.29.09,1.51.27,3.02.45,4.5Z"/>
  <polygon class="cls-1" points="61.69 1.35 64.05 1.35 64.05 23.85 65.62 23.85 65.62 1.35 67.98 1.35 67.98 .13 61.69 .13 61.69 1.35"/>
  <rect class="cls-1" x="68.66" y=".13" width="1.58" height="23.72"/>
  <path class="cls-1" d="M75.28,0c-1.93,0-3.04.97-3.04,2.66v18.66c0,1.69,1.11,2.66,3.04,2.66s3.01-.97,3.01-2.66V2.66c0-1.69-1.1-2.66-3.01-2.66ZM73.81,2.69c0-.93.53-1.47,1.47-1.47s1.43.52,1.43,1.47v18.59c0,.95-.51,1.47-1.43,1.47s-1.47-.53-1.47-1.47V2.69Z"/>
  <path class="cls-1" d="M85.26,15.21c0,1.03.11,3.17.24,5.69-.34-2.23-.62-4.15-.82-5.52L82.43.24l-.02-.11h-2.22v23.72h1.58v-15.79c0-.33-.03-1.04-.07-2.03-.03-.77-.07-1.72-.1-2.73.28,2.36.53,4.51.69,5.5l2.32,14.95.02.11h2.22V.13h-1.58v15.08Z"/>
  <path class="cls-1" d="M95.25.13h-2.08l-2.7,23.58-.02.14h1.45l.73-6.86h3.06l.75,6.75v.11h1.59L95.26.24v-.11ZM94.59,6.84c.05.45.11.91.16,1.36l.81,7.56h-2.77l.85-7.56c.13-1.18.23-2.39.32-3.56.06-.76.12-1.53.19-2.29.09,1.51.27,3.02.45,4.5Z"/>
  <path class="cls-1" d="M101.14,15.71c-.11,1.06-.18,2.14-.25,3.18-.06.93-.13,1.89-.22,2.85-.05-.62-.09-1.23-.14-1.85-.1-1.35-.2-2.75-.34-4.18l-1.59-15.47v-.11h-1.59l2.6,23.6v.11h2.03L104.24.27l.02-.14h-1.55l-1.57,15.58Z"/>
  <polygon class="cls-1" points="106.53 12.28 109.55 12.28 109.55 11.05 106.53 11.05 106.53 1.35 109.75 1.35 109.75 .13 104.95 .13 104.95 23.85 109.98 23.85 109.98 22.62 106.53 22.62 106.53 12.28"/>
  <path class="cls-1" d="M116.34,6.65v-3.99c0-1.72-1-2.66-2.81-2.66s-2.94.99-2.94,2.66v18.66c0,1.67,1.1,2.66,2.94,2.66s2.81-.94,2.81-2.66v-4.32h-1.58v4.12c0,1.22-.31,1.63-1.23,1.63-.86,0-1.37-.5-1.37-1.34V2.56c0-.84.51-1.34,1.37-1.34s1.23.53,1.23,1.63v3.8h1.58Z"/>
</svg>