<?xml version="1.0" encoding="UTF-8"?>
<svg id="written_by_-_copie" data-name="written by - copie" xmlns="http://www.w3.org/2000/svg" viewBox="0 0 2000 1000">
  <defs>
    <style>
      .cls-1 {
        fill: #1d1d1b;
        stroke-width: 0px;
      }
    </style>
  </defs>
  <path class="cls-1" d="M21.71,471.48h62.33v13.65h-44.13v139.23h41.4v13.65h-41.4v148.33h47.32v13.65H21.71v-328.51Z"/>
  <path class="cls-1" d="M105.89,471.48h27.3l30.94,212.03c3.64,25.94,9.1,63.25,15.02,102.83h.91c-2.27-45.5-4.55-87.82-4.55-105.56v-209.3h18.2v328.51h-27.3l-31.85-209.3c-2.73-17.75-7.73-62.33-12.74-105.56h-.91c.91,42.77,3.19,84.63,3.19,95.55v219.31h-18.2v-328.51Z"/>
  <path class="cls-1" d="M319.28,703.98h-45.05l-10.01,96.01h-16.38l36.86-328.51h25.48l37.77,328.51h-18.2l-10.46-96.01ZM317.92,690.33l-11.38-107.84c-3.64-32.76-8.19-65.97-9.1-99.19h-.91c-3.64,32.76-5.01,66.43-8.65,99.19l-11.83,107.84h41.86Z"/>
  <path class="cls-1" d="M369.33,768.14c0,10.92,4.1,20.02,20.93,20.02,15.47,0,22.3-5.92,22.3-20.93v-56.42c0-17.29-3.19-27.3-9.56-42.31l-38.22-72.35c-7.73-14.56-11.83-31.85-11.83-44.59v-47.78c0-21.39,14.56-34.13,37.77-34.13,24.57,0,37.31,9.1,37.31,30.49v58.69h-16.38v-56.88c0-13.19-6.83-18.65-19.56-18.65s-19.57,8.65-19.57,19.56v50.96c0,10.92,2.28,20.48,7.28,31.4l37.31,71.44c7.73,15.47,13.65,31.39,13.65,49.59v61.88c0,20.93-10.46,33.67-39.13,33.67s-38.68-12.74-38.68-35.04v-58.24h16.38v59.6Z"/>
  <path class="cls-1" d="M464.42,768.14c0,10.92,4.1,20.02,20.93,20.02,15.47,0,22.3-5.92,22.3-20.93v-56.42c0-17.29-3.19-27.3-9.56-42.31l-38.22-72.35c-7.73-14.56-11.83-31.85-11.83-44.59v-47.78c0-21.39,14.56-34.13,37.77-34.13,24.57,0,37.31,9.1,37.31,30.49v58.69h-16.38v-56.88c0-13.19-6.83-18.65-19.56-18.65s-19.57,8.65-19.57,19.56v50.96c0,10.92,2.28,20.48,7.28,31.4l37.31,71.44c7.73,15.47,13.65,31.39,13.65,49.59v61.88c0,20.93-10.46,33.67-39.13,33.67s-38.68-12.74-38.68-35.04v-58.24h16.38v59.6Z"/>
  <path class="cls-1" d="M629.13,766.32c0,22.75-14.11,35.49-39.59,35.49s-40.04-12.74-40.04-35.49v-261.17c0-22.75,14.56-35.49,40.04-35.49s39.59,12.74,39.59,35.49v261.17ZM610.93,505.6c0-14.56-8.19-22.3-21.39-22.3s-21.84,7.73-21.84,22.3v260.26c0,14.56,8.65,22.29,21.84,22.29s21.39-7.74,21.39-22.29v-260.26Z"/>
  <path class="cls-1" d="M652.79,505.15c0-22.75,14.56-35.49,38.68-35.49s36.85,12.74,36.85,35.49v54.14h-18.2v-51.42c0-13.19-4.09-24.57-18.65-24.57-12.74,0-20.48,7.73-20.48,20.48v263.9c0,12.74,7.73,20.47,20.48,20.47,14.56,0,18.65-7.74,18.65-24.57v-55.96h18.2v58.7c0,22.75-12.74,35.49-36.85,35.49s-38.68-12.74-38.68-35.49v-261.17Z"/>
  <path class="cls-1" d="M753.35,471.48h18.2v328.51h-18.2v-328.51Z"/>
  <path class="cls-1" d="M855.72,703.98h-45.05l-10.01,96.01h-16.38l36.86-328.51h25.48l37.77,328.51h-18.2l-10.46-96.01ZM854.36,690.33l-11.38-107.84c-3.64-32.76-8.19-65.97-9.1-99.19h-.91c-3.64,32.76-5.01,66.43-8.65,99.19l-11.83,107.84h41.86Z"/>
  <path class="cls-1" d="M905.32,485.13h-32.31v-13.65h82.81v13.65h-32.3v314.86h-18.2v-314.86Z"/>
  <path class="cls-1" d="M969.01,471.48h18.2v328.51h-18.2v-328.51Z"/>
  <path class="cls-1" d="M1098.24,766.32c0,22.75-14.11,35.49-39.58,35.49s-40.04-12.74-40.04-35.49v-261.17c0-22.75,14.56-35.49,40.04-35.49s39.58,12.74,39.58,35.49v261.17ZM1080.04,505.6c0-14.56-8.19-22.3-21.38-22.3s-21.84,7.73-21.84,22.3v260.26c0,14.56,8.65,22.29,21.84,22.29s21.38-7.74,21.38-22.29v-260.26Z"/>
  <path class="cls-1" d="M1128.26,471.48h27.3l30.94,212.03c3.64,25.94,9.1,63.25,15.02,102.83h.91c-2.28-45.5-4.55-87.82-4.55-105.56v-209.3h18.2v328.51h-27.3l-31.85-209.3c-2.73-17.75-7.73-62.33-12.74-105.56h-.91c.91,42.77,3.18,84.63,3.18,95.55v219.31h-18.2v-328.51Z"/>
  <path class="cls-1" d="M1341.66,703.98h-45.04l-10.01,96.01h-16.38l36.85-328.51h25.48l37.76,328.51h-18.2l-10.47-96.01ZM1340.29,690.33l-11.38-107.84c-3.64-32.76-8.19-65.97-9.1-99.19h-.91c-3.64,32.76-5,66.43-8.64,99.19l-11.83,107.84h41.86Z"/>
  <path class="cls-1" d="M1360.77,471.48h18.2l21.84,216.58c3.19,33.67,5.01,65.52,7.74,98.28h.91c3.64-32.76,4.55-65.52,7.74-98.28l21.38-216.58h17.75l-35.49,328.51h-24.57l-35.49-328.51Z"/>
  <path class="cls-1" d="M1469.96,471.48h62.34v13.65h-44.14v139.23h41.41v13.65h-41.41v148.33h47.32v13.65h-65.52v-328.51Z"/>
  <path class="cls-1" d="M1547.77,505.15c0-22.75,14.56-35.49,38.67-35.49s36.86,12.74,36.86,35.49v54.14h-18.2v-51.42c0-13.19-4.1-24.57-18.66-24.57-12.74,0-20.48,7.73-20.48,20.48v263.9c0,12.74,7.74,20.47,20.48,20.47,14.56,0,18.66-7.74,18.66-24.57v-55.96h18.2v58.7c0,22.75-12.74,35.49-36.86,35.49s-38.67-12.74-38.67-35.49v-261.17Z"/>
</svg>