<?xml version="1.0" encoding="UTF-8"?>
<svg id="written_by_-_copie" data-name="written by - copie" xmlns="http://www.w3.org/2000/svg" viewBox="0 0 2000 1000">
  <defs>
    <style>
      .cls-1 {
        fill: #1d1d1b;
        stroke-width: 0px;
      }
    </style>
  </defs>
  <path class="cls-1" d="M388.95,78.98h40.95c24.57,0,37.31,10.01,37.31,31.4v107.38c0,18.66-12.74,31.4-37.31,31.4h-22.75v158.34h-18.2V78.98ZM426.72,235.5c13.19,0,22.29-6.37,22.29-19.56v-102.83c0-14.1-8.19-20.48-22.29-20.48h-19.56v142.87h19.56Z"/>
  <path class="cls-1" d="M489.96,78.98h40.95c21.84,0,37.31,10.01,37.31,30.48v96.92c0,17.75-5,30.49-28.21,32.31v.91c16.38,1.36,28.21,9.55,28.21,29.58v138.32h-18.2v-138.32c0-12.29-6.82-23.66-25.02-23.66h-16.83v161.98h-18.2V78.98ZM525.9,231.86c15.47,0,24.11-7.28,24.11-21.84v-96.92c0-14.1-7.73-20.48-22.29-20.48h-19.56v139.23h17.75Z"/>
  <path class="cls-1" d="M679.23,373.82c0,22.75-14.11,35.49-39.59,35.49s-40.04-12.74-40.04-35.49V112.65c0-22.75,14.56-35.49,40.04-35.49s39.59,12.74,39.59,35.49v261.17ZM661.03,113.1c0-14.56-8.19-22.29-21.39-22.29s-21.84,7.73-21.84,22.29v260.26c0,14.56,8.65,22.29,21.84,22.29s21.39-7.73,21.39-22.29V113.1Z"/>
  <path class="cls-1" d="M709.26,78.98h38.68c26.84,0,40.95,10.46,40.95,35.04v258.44c0,24.57-14.1,35.04-40.95,35.04h-38.68V78.98ZM746.12,393.84c16.38,0,24.57-5.92,24.57-20.02V112.65c0-14.1-8.19-20.02-24.57-20.02h-18.65v301.21h18.65Z"/>
  <path class="cls-1" d="M898.54,78.98v294.84c0,22.75-14.11,35.49-39.59,35.49s-40.04-12.74-40.04-35.49V78.98h18.2v294.39c0,14.56,8.65,22.29,21.84,22.29s21.39-7.73,21.39-22.29V78.98h18.2Z"/>
  <path class="cls-1" d="M922.2,112.65c0-22.75,14.56-35.49,38.67-35.49s36.86,12.74,36.86,35.49v54.15h-18.2v-51.42c0-13.19-4.1-24.57-18.66-24.57-12.74,0-20.48,7.73-20.48,20.48v263.9c0,12.74,7.74,20.48,20.48,20.48,14.56,0,18.66-7.73,18.66-24.57v-55.96h18.2v58.7c0,22.75-12.74,35.49-36.86,35.49s-38.67-12.74-38.67-35.49V112.65Z"/>
  <path class="cls-1" d="M1035.49,92.63h-32.3v-13.65h82.81v13.65h-32.3v314.86h-18.2V92.63Z"/>
  <path class="cls-1" d="M1097.83,78.98h62.34v13.65h-44.14v139.23h41.41v13.65h-41.41v148.33h47.32v13.65h-65.52V78.98Z"/>
  <path class="cls-1" d="M1261.63,78.98v294.84c0,22.75-14.11,35.49-39.58,35.49s-40.04-12.74-40.04-35.49V78.98h18.2v294.39c0,14.56,8.65,22.29,21.84,22.29s21.38-7.73,21.38-22.29V78.98h18.2Z"/>
  <path class="cls-1" d="M1291.65,78.98h40.95c21.84,0,37.31,10.01,37.31,30.48v96.92c0,17.75-5,30.49-28.21,32.31v.91c16.38,1.36,28.21,9.55,28.21,29.58v138.32h-18.2v-138.32c0-12.29-6.83-23.66-25.03-23.66h-16.83v161.98h-18.2V78.98ZM1327.6,231.86c15.47,0,24.12-7.28,24.12-21.84v-96.92c0-14.1-7.74-20.48-22.29-20.48h-19.57v139.23h17.75Z"/>
  <path class="cls-1" d="M734.29,471.48h62.33v13.65h-44.13v139.23h41.4v13.65h-41.4v148.33h47.32v13.65h-65.52v-328.51Z"/>
  <path class="cls-1" d="M804.36,471.48h18.2l27.3,144.69h.91l29.12-144.69h16.38l-34.58,157.43,36.86,171.08h-18.2l-29.58-158.34h-.91l-32.31,158.34h-16.38l36.85-171.08-33.67-157.43Z"/>
  <path class="cls-1" d="M911.28,471.48h62.34v13.65h-44.14v139.23h41.41v13.65h-41.41v148.33h47.32v13.65h-65.52v-328.51ZM945.41,407.32h20.02l-26.39,43.68h-11.83l18.2-43.68Z"/>
  <path class="cls-1" d="M989.09,505.15c0-22.75,14.56-35.49,38.67-35.49s36.86,12.74,36.86,35.49v54.14h-18.2v-51.42c0-13.19-4.1-24.57-18.66-24.57-12.74,0-20.48,7.73-20.48,20.48v263.9c0,12.74,7.74,20.47,20.48,20.47,14.56,0,18.66-7.74,18.66-24.57v-55.96h18.2v58.7c0,22.75-12.74,35.49-36.86,35.49s-38.67-12.74-38.67-35.49v-261.17Z"/>
  <path class="cls-1" d="M1167.9,471.48v294.84c0,22.75-14.11,35.49-39.58,35.49s-40.04-12.74-40.04-35.49v-294.84h18.2v294.39c0,14.56,8.65,22.29,21.84,22.29s21.38-7.74,21.38-22.29v-294.39h18.2Z"/>
  <path class="cls-1" d="M1212.03,485.13h-32.3v-13.65h82.81v13.65h-32.3v314.86h-18.2v-314.86Z"/>
  <path class="cls-1" d="M1275.73,471.48h18.2v328.51h-18.2v-328.51Z"/>
  <path class="cls-1" d="M1325.33,471.48h62.34v13.65h-44.14v139.23h42.32v13.65h-42.32v161.98h-18.2v-328.51Z"/>
</svg>