<svg id="ecrit_par_-_copie" data-name="ecrit par - copie" xmlns="http://www.w3.org/2000/svg" viewBox="0 0 78.88 52.18"><defs><style>.cls-1{fill:#1d1d1b;}</style></defs><path class="cls-1" d="M340.42,276.92h-3.11v23.71h1.58V289.32h1.53c1.78,0,2.84-.88,2.84-2.36v-7.67C343.26,277.72,342.3,276.92,340.42,276.92Zm-1.53,1.22h1.3c1,0,1.5.44,1.5,1.34v7.35c0,1.1-.94,1.27-1.5,1.27h-1.3Z" transform="translate(-337.31 -276.79)"/><path class="cls-1" d="M347.74,276.92h-3.11v23.71h1.58V289.06h1.1a1.49,1.49,0,0,1,1.7,1.57v10h1.58v-10a2,2,0,0,0-1.58-2.14c1.37-.33,1.58-1.35,1.58-2.35v-6.92C350.59,277.78,349.52,276.92,347.74,276.92Zm-1.53,1.22h1.3c1,0,1.5.43,1.5,1.34v6.92c0,1-.55,1.44-1.63,1.44h-1.17Z" transform="translate(-337.31 -276.79)"/><path class="cls-1" d="M355.63,276.79c-1.93,0-3,1-3,2.66V298.1c0,1.69,1.11,2.66,3,2.66s3-1,3-2.66V279.45C358.64,277.76,357.55,276.79,355.63,276.79Zm-1.46,2.69a1.33,1.33,0,0,1,1.46-1.47,1.32,1.32,0,0,1,1.44,1.47v18.59a1.31,1.31,0,0,1-1.44,1.47,1.33,1.33,0,0,1-1.46-1.47Z" transform="translate(-337.31 -276.79)"/><path class="cls-1" d="M366.6,298V279.55c0-1.77-1-2.63-3.11-2.63h-2.94v23.71h2.94C365.58,300.63,366.6,299.78,366.6,298Zm-3.24-19.87c1.15,0,1.66.41,1.66,1.31V298.1c0,.91-.51,1.31-1.66,1.31h-1.24V278.14Z" transform="translate(-337.31 -276.79)"/><path class="cls-1" d="M371.54,300.76c1.92,0,3-1,3-2.66V276.92H373v21.15a1.31,1.31,0,0,1-1.44,1.47,1.33,1.33,0,0,1-1.46-1.47V276.92H368.5V298.1C368.5,299.79,369.61,300.76,371.54,300.76Z" transform="translate(-337.31 -276.79)"/><path class="cls-1" d="M377.74,300.59l-1.41,3.32h1.12l2-3.18a2.39,2.39,0,0,0,2.34-2.63v-4.31h-1.58v4.12c0,1.22-.31,1.63-1.23,1.63a1.24,1.24,0,0,1-1.37-1.34V279.35a1.24,1.24,0,0,1,1.37-1.34c.83,0,1.23.54,1.23,1.63v3.8h1.58v-4c0-1.72-1-2.66-2.81-2.66s-2.95,1-2.95,2.66V298.1A2.42,2.42,0,0,0,377.74,300.59Z" transform="translate(-337.31 -276.79)"/><polygon class="cls-1" points="46.91 23.85 48.48 23.85 48.48 1.35 50.84 1.35 50.84 0.13 44.55 0.13 44.55 1.35 46.91 1.35 46.91 23.85"/><polygon class="cls-1" points="56.44 22.62 52.99 22.62 52.99 12.28 56.01 12.28 56.01 11.05 52.99 11.05 52.99 1.35 56.21 1.35 56.21 0.13 51.41 0.13 51.41 23.85 56.44 23.85 56.44 22.62"/><path class="cls-1" d="M397.87,300.76c1.91,0,3-1,3-2.66V276.92H399.3v21.15a1.31,1.31,0,0,1-1.43,1.47,1.34,1.34,0,0,1-1.47-1.47V276.92h-1.58V298.1C394.82,299.79,395.93,300.76,397.87,300.76Z" transform="translate(-337.31 -276.79)"/><path class="cls-1" d="M407.16,290.63v10h1.57v-10a2,2,0,0,0-1.58-2.14c1.38-.33,1.58-1.35,1.58-2.35v-6.92c0-1.44-1.06-2.3-2.84-2.3h-3.11v23.71h1.58V289.06h1.1A1.49,1.49,0,0,1,407.16,290.63Zm-2.8-12.49h1.3c1,0,1.5.43,1.5,1.34v6.92c0,1-.55,1.44-1.64,1.44h-1.16Z" transform="translate(-337.31 -276.79)"/><path class="cls-1" d="M415.18,290.21l-2.71-5.09a4.84,4.84,0,0,1-.52-2.19v-3.64a1.21,1.21,0,0,1,1.3-1.28c.9,0,1.3.38,1.3,1.21v4.19H416v-4.32c0-1.55-.93-2.3-2.84-2.3s-2.88,1-2.88,2.56v3.41a7.31,7.31,0,0,0,.88,3.25l2.78,5.16a6.54,6.54,0,0,1,.69,3v4c0,1-.42,1.37-1.5,1.37s-1.4-.4-1.4-1.31v-4.38h-1.45v4.29c0,1.79.94,2.62,3,2.62s3-.82,3-2.53v-4.42A7.81,7.81,0,0,0,415.18,290.21Z" transform="translate(-337.31 -276.79)"/><polygon class="cls-1" points="37.15 28.33 35.69 28.33 33.64 38.32 31.72 28.33 30.14 28.33 32.62 39.7 30.12 51.06 30.12 50.82 26.67 50.82 26.67 40.48 29.69 40.48 29.69 39.25 26.67 39.25 26.67 29.55 29.89 29.55 29.89 28.33 25.09 28.33 25.09 52.05 29.9 52.05 30.12 52.05 31.36 52.05 33.64 41.08 35.71 51.94 35.73 52.05 37.31 52.05 34.6 39.7 37.15 28.33"/><polygon class="cls-1" points="39.5 40.48 42.52 40.48 42.52 39.25 39.5 39.25 39.5 29.55 42.72 29.55 42.72 28.33 37.92 28.33 37.92 52.05 42.95 52.05 42.95 50.82 39.5 50.82 39.5 40.48"/><path class="cls-1" d="M383.81,305c-1.84,0-2.94,1-2.94,2.66V326.3c0,1.67,1.1,2.66,2.94,2.66s2.81-.94,2.81-2.66V322h-1.57v4.12c0,1.22-.32,1.63-1.24,1.63a1.25,1.25,0,0,1-1.37-1.34V307.55a1.25,1.25,0,0,1,1.37-1.34c.83,0,1.24.54,1.24,1.63v3.8h1.57v-4C386.62,305.93,385.62,305,383.81,305Z" transform="translate(-337.31 -276.79)"/><path class="cls-1" d="M392.54,326.27a1.31,1.31,0,0,1-1.44,1.47,1.33,1.33,0,0,1-1.46-1.47V305.12h-1.58V326.3c0,1.7,1.11,2.66,3,2.66s3-1,3-2.66V305.12h-1.57Z" transform="translate(-337.31 -276.79)"/><polygon class="cls-1" points="57.38 29.55 59.74 29.55 59.74 52.05 61.31 52.05 61.31 29.55 63.67 29.55 63.67 28.33 57.38 28.33 57.38 29.55"/><rect class="cls-1" x="64.34" y="28.33" width="1.58" height="23.72"/><polygon class="cls-1" points="67.92 52.05 69.5 52.05 69.5 40.48 72.58 40.48 72.58 39.25 69.5 39.25 69.5 29.55 72.72 29.55 72.72 28.33 67.92 28.33 67.92 52.05"/><path class="cls-1" d="M412.47,313.32a4.84,4.84,0,0,1-.52-2.19v-3.64a1.21,1.21,0,0,1,1.3-1.28c.9,0,1.3.38,1.3,1.21v4.19H416v-4.32c0-1.55-.93-2.3-2.84-2.3s-2.88,1-2.88,2.56V311a7.31,7.31,0,0,0,.88,3.25l2.78,5.16a6.54,6.54,0,0,1,.69,3v4c0,1-.42,1.37-1.5,1.37s-1.4-.4-1.4-1.3v-4.39h-1.45v4.29c0,1.79.94,2.62,3,2.62s3-.82,3-2.52V322a7.81,7.81,0,0,0-1-3.6Z" transform="translate(-337.31 -276.79)"/></svg>