<svg id="ecrit_par_-_copie" data-name="ecrit par - copie" xmlns="http://www.w3.org/2000/svg" viewBox="0 0 47.79 52.05">
	<defs>
		<style>.cls-1{fill:#1d1d1b;}</style>
	</defs>
	<path class="cls-1" d="M372.37,276.92h-3.11v23.71h1.58V289.32h1.53c1.78,0,2.85-.88,2.85-2.36v-7.67C375.22,277.72,374.26,276.92,372.37,276.92Zm-1.53,1.22h1.3c1,0,1.5.44,1.5,1.34v7.35c0,1.1-.94,1.27-1.5,1.27h-1.3Z" transform="translate(-369.26 -276.79)"/>
	<path class="cls-1" d="M379.7,276.92h-3.11v23.71h1.58V289.06h1.1a1.49,1.49,0,0,1,1.7,1.57v10h1.57v-10a2,2,0,0,0-1.58-2.14c1.38-.33,1.58-1.35,1.58-2.35v-6.92C382.54,277.78,381.48,276.92,379.7,276.92Zm-1.53,1.22h1.3c1,0,1.5.43,1.5,1.34v6.92c0,1-.55,1.44-1.64,1.44h-1.16Z" transform="translate(-369.26 -276.79)"/>
	<path class="cls-1" d="M387.59,276.79c-1.93,0-3,1-3,2.66V298.1c0,1.69,1.11,2.66,3,2.66s3-1,3-2.66V279.45C390.6,277.76,389.5,276.79,387.59,276.79Zm-1.47,2.69a1.34,1.34,0,0,1,1.47-1.47,1.31,1.31,0,0,1,1.43,1.47v18.59a1.31,1.31,0,0,1-1.43,1.47,1.34,1.34,0,0,1-1.47-1.47Z" transform="translate(-369.26 -276.79)"/>
	<path class="cls-1" d="M398.55,298V279.55c0-1.77-1-2.63-3.1-2.63H392.5v23.71h2.95C397.54,300.63,398.55,299.78,398.55,298Zm-4.47-19.87h1.23c1.15,0,1.67.41,1.67,1.31V298.1c0,.91-.52,1.31-1.67,1.31h-1.23Z" transform="translate(-369.26 -276.79)"/>
	<path class="cls-1" d="M403.5,300.76c1.91,0,3-1,3-2.66V276.92h-1.58v21.15a1.3,1.3,0,0,1-1.43,1.47,1.33,1.33,0,0,1-1.46-1.47V276.92h-1.58V298.1C400.46,299.79,401.57,300.76,403.5,300.76Z" transform="translate(-369.26 -276.79)"/>
	<rect class="cls-1" x="39.25" y="0.13" width="1.58" height="23.72"/>
	<polygon class="cls-1" points="41.5 0.13 41.5 1.35 43.86 1.35 43.86 23.85 45.43 23.85 45.43 1.35 47.79 1.35 47.79 0.13 41.5 0.13"/>
	<path class="cls-1" d="M401.9,307.49c0-1.57-.95-2.37-2.84-2.37H396v23.71h1.58V317.52h1.53c1.78,0,2.84-.88,2.84-2.36Zm-4.37-1.15h1.3c1,0,1.5.44,1.5,1.34V315c0,1.1-.94,1.27-1.5,1.27h-1.3Z" transform="translate(-369.26 -276.79)"/>
	<path class="cls-1" d="M406.36,305.12h-2.07l-2.7,23.58,0,.13H403l.73-6.85h3.05l.75,6.74,0,.11h1.58l-2.77-23.6Zm-.65,6.71.15,1.36.82,7.56h-2.77l.84-7.56c.14-1.18.23-2.39.32-3.56.06-.75.12-1.53.19-2.29C405.35,308.85,405.53,310.36,405.71,311.83Z" transform="translate(-369.26 -276.79)"/>
	<path class="cls-1" d="M412.78,305.12h-3.11v23.71h1.58V317.26h1.1a1.49,1.49,0,0,1,1.7,1.57v10h1.58v-10a2,2,0,0,0-1.58-2.14c1.37-.33,1.58-1.35,1.58-2.35v-6.92C415.63,306,414.56,305.12,412.78,305.12Zm-1.53,1.22h1.3c1,0,1.5.43,1.5,1.34v6.92c0,1-.55,1.44-1.63,1.44h-1.17Z" transform="translate(-369.26 -276.79)"/>
</svg>