<?xml version="1.0" encoding="UTF-8"?>
<svg id="Calque_3" data-name="Calque 3" xmlns="http://www.w3.org/2000/svg" viewBox="0 0 2000 1000">
  <defs>
    <style>
      .cls-1 {
        fill: #1d1d1b;
        stroke-width: 0px;
      }
    </style>
  </defs>
  <path class="cls-1" d="M195.06,337.84v414.72c0,32-19.84,49.92-55.68,49.92s-56.32-17.92-56.32-49.92v-414.72h25.6v414.08c0,20.48,12.16,31.36,30.72,31.36s30.08-10.88,30.08-31.36v-414.08h25.6Z"/>
  <path class="cls-1" d="M237.3,337.84h38.4l43.52,298.24c5.12,36.48,12.8,88.96,21.12,144.64h1.28c-3.2-64-6.4-123.52-6.4-148.48v-294.4h25.6v462.08h-38.4l-44.8-294.4c-3.84-24.96-10.88-87.68-17.92-148.48h-1.28c1.28,60.16,4.48,119.04,4.48,134.4v308.48h-25.6v-462.08Z"/>
  <path class="cls-1" d="M403.05,337.84h87.68v19.2h-62.08v195.84h58.24v19.2h-58.24v208.64h66.56v19.2h-92.16v-462.08Z"/>
</svg>