<svg id="ecrit_par_-_copie" data-name="ecrit par - copie" xmlns="http://www.w3.org/2000/svg" viewBox="0 0 21.53 23.85"><defs><style>.cls-1{fill:#1d1d1b;}</style></defs><path class="cls-1" d="M399.5,298.07a1.31,1.31,0,0,1-1.43,1.47,1.34,1.34,0,0,1-1.47-1.47V276.92H395V298.1c0,1.69,1.11,2.66,3.05,2.66s3-1,3-2.66V276.92H399.5Z" transform="translate(-395.02 -276.92)"/><path class="cls-1" d="M408.05,292c0,1,.11,3.17.24,5.7-.34-2.23-.62-4.15-.82-5.52L405.22,277l0-.11H403v23.71h1.58V284.84c0-.33,0-1-.07-2,0-.78-.07-1.72-.11-2.74.28,2.36.53,4.51.69,5.5l2.32,14.95,0,.1h2.22V276.92h-1.58Z" transform="translate(-395.02 -276.92)"/><polygon class="cls-1" points="18.09 22.49 18.09 12.15 21.1 12.15 21.1 10.92 18.09 10.92 18.09 1.23 21.3 1.23 21.3 0 16.51 0 16.51 23.72 21.53 23.72 21.53 22.49 18.09 22.49"/></svg>