<?xml version="1.0" encoding="UTF-8"?>
<svg id="written_by_-_copie" data-name="written by - copie" xmlns="http://www.w3.org/2000/svg" viewBox="0 0 2000 1000">
  <defs>
    <style>
      .cls-1 {
        fill: #1d1d1b;
        stroke-width: 0px;
      }
    </style>
  </defs>
  <path class="cls-1" d="M168.11,375.64c0,10.92,4.1,20.02,20.93,20.02,15.47,0,22.3-5.92,22.3-20.93v-56.42c0-17.29-3.19-27.3-9.56-42.32l-38.22-72.35c-7.73-14.56-11.83-31.85-11.83-44.59v-47.77c0-21.39,14.56-34.13,37.77-34.13,24.57,0,37.31,9.1,37.31,30.49v58.7h-16.38v-56.88c0-13.19-6.83-18.65-19.56-18.65s-19.57,8.65-19.57,19.56v50.96c0,10.92,2.28,20.48,7.28,31.4l37.31,71.44c7.73,15.47,13.65,31.4,13.65,49.6v61.88c0,20.93-10.46,33.67-39.13,33.67s-38.68-12.74-38.68-35.04v-58.24h16.38v59.61Z"/>
  <path class="cls-1" d="M246.83,112.65c0-22.75,14.56-35.49,38.68-35.49s36.85,12.74,36.85,35.49v54.15h-18.2v-51.42c0-13.19-4.09-24.57-18.65-24.57-12.74,0-20.48,7.73-20.48,20.48v263.9c0,12.74,7.73,20.48,20.48,20.48,14.56,0,18.65-7.73,18.65-24.57v-55.96h18.2v58.7c0,22.75-12.74,35.49-36.85,35.49s-38.68-12.74-38.68-35.49V112.65Z"/>
  <path class="cls-1" d="M346.02,78.98h62.33v13.65h-44.13v139.23h41.4v13.65h-41.4v148.33h47.32v13.65h-65.52V78.98ZM380.14,14.82h20.02l-26.39,43.68h-11.83l18.2-43.68Z"/>
  <path class="cls-1" d="M430.19,78.98h27.3l30.94,212.03c3.64,25.94,9.1,63.25,15.02,102.83h.91c-2.27-45.5-4.55-87.82-4.55-105.56V78.98h18.2v328.51h-27.3l-31.85-209.3c-2.73-17.75-7.73-62.34-12.74-105.56h-.91c.91,42.77,3.19,84.63,3.19,95.55v219.31h-18.2V78.98Z"/>
  <path class="cls-1" d="M605.36,311.48h-45.05l-10.01,96.01h-16.38l36.86-328.51h25.48l37.77,328.51h-18.2l-10.46-96.01ZM603.99,297.83l-11.38-107.84c-3.64-32.76-8.19-65.98-9.1-99.19h-.91c-3.64,32.76-5.01,66.43-8.65,99.19l-11.83,107.84h41.86Z"/>
  <path class="cls-1" d="M645.39,78.98h40.95c21.84,0,37.31,10.01,37.31,30.48v96.92c0,17.75-5,30.49-28.21,32.31v.91c16.38,1.36,28.21,9.55,28.21,29.58v138.32h-18.2v-138.32c0-12.29-6.82-23.66-25.02-23.66h-16.83v161.98h-18.2V78.98ZM681.34,231.86c15.47,0,24.11-7.28,24.11-21.84v-96.92c0-14.1-7.73-20.48-22.29-20.48h-19.56v139.23h17.75Z"/>
  <path class="cls-1" d="M756.41,78.98h18.2v328.51h-18.2V78.98Z"/>
  <path class="cls-1" d="M885.63,373.82c0,22.75-14.11,35.49-39.59,35.49s-40.04-12.74-40.04-35.49V112.65c0-22.75,14.56-35.49,40.04-35.49s39.59,12.74,39.59,35.49v261.17ZM867.43,113.1c0-14.56-8.19-22.29-21.39-22.29s-21.84,7.73-21.84,22.29v260.26c0,14.56,8.65,22.29,21.84,22.29s21.39-7.73,21.39-22.29V113.1Z"/>
  <path class="cls-1" d="M721.83,471.48h38.68c26.84,0,40.95,10.46,40.95,35.03v258.44c0,24.57-14.1,35.04-40.95,35.04h-38.68v-328.51ZM758.69,786.34c16.38,0,24.57-5.92,24.57-20.02v-261.17c0-14.11-8.19-20.02-24.57-20.02h-18.65v301.21h18.65Z"/>
  <path class="cls-1" d="M831.49,471.48h62.34v13.65h-44.14v139.23h41.4v13.65h-41.4v148.33h47.32v13.65h-65.52v-328.51Z"/>
</svg>