<?xml version="1.0" encoding="UTF-8"?>
<svg id="Calque_3" data-name="Calque 3" xmlns="http://www.w3.org/2000/svg" viewBox="0 0 2000 1000">
  <defs>
    <style>
      .cls-1 {
        fill: #1d1d1b;
        stroke-width: 0px;
      }
    </style>
  </defs>
  <path class="cls-1" d="M83.06,337.84h54.4c37.76,0,57.6,14.72,57.6,49.28v363.52c0,34.56-19.84,49.28-57.6,49.28h-54.4v-462.08ZM134.9,780.72c23.04,0,34.56-8.32,34.56-28.16v-367.36c0-19.84-11.52-28.16-34.56-28.16h-26.24v423.68h26.24Z"/>
  <path class="cls-1" d="M311.54,664.88h-63.36l-14.08,135.04h-23.04l51.84-462.08h35.84l53.12,462.08h-25.6l-14.72-135.04ZM309.62,645.68l-16-151.68c-5.12-46.08-11.52-92.8-12.8-139.52h-1.28c-5.12,46.08-7.04,93.44-12.16,139.52l-16.64,151.68h58.88Z"/>
  <path class="cls-1" d="M367.86,337.84h38.4l43.52,298.24c5.12,36.48,12.8,88.96,21.12,144.64h1.28c-3.2-64-6.4-123.52-6.4-148.48v-294.4h25.6v462.08h-38.4l-44.8-294.4c-3.84-24.96-10.88-87.68-17.92-148.48h-1.28c1.28,60.16,4.48,119.04,4.48,134.4v308.48h-25.6v-462.08Z"/>
  <path class="cls-1" d="M547.69,755.12c0,15.36,5.76,28.16,29.44,28.16,21.76,0,31.36-8.32,31.36-29.44v-79.36c0-24.32-4.48-38.4-13.44-59.52l-53.76-101.76c-10.88-20.48-16.64-44.8-16.64-62.72v-67.2c0-30.08,20.48-48,53.12-48,34.56,0,52.48,12.8,52.48,42.88v82.56h-23.04v-80c0-18.56-9.6-26.24-27.52-26.24s-27.52,12.16-27.52,27.52v71.68c0,15.36,3.2,28.8,10.24,44.16l52.48,100.48c10.88,21.76,19.2,44.16,19.2,69.76v87.04c0,29.44-14.72,47.36-55.04,47.36s-54.4-17.92-54.4-49.28v-81.92h23.04v83.84Z"/>
  <path class="cls-1" d="M739.05,337.84h25.6v442.88h67.2v19.2h-92.8v-462.08Z"/>
  <path class="cls-1" d="M857.45,337.84h87.68v19.2h-62.08v195.84h58.24v19.2h-58.24v208.64h66.56v19.2h-92.16v-462.08Z"/>
  <path class="cls-1" d="M1047.52,337.84h57.6c30.72,0,52.48,14.08,52.48,42.88v136.32c0,24.96-7.04,42.88-39.68,45.44v1.28c23.04,1.92,39.68,13.44,39.68,41.6v194.56h-25.6v-194.56c0-17.28-9.6-33.28-35.2-33.28h-23.68v227.84h-25.6v-462.08ZM1098.08,552.88c21.76,0,33.92-10.24,33.92-30.72v-136.32c0-19.84-10.88-28.8-31.36-28.8h-27.52v195.84h24.96Z"/>
  <path class="cls-1" d="M1313.76,752.56c0,32-19.84,49.92-55.68,49.92s-56.32-17.92-56.32-49.92v-367.36c0-32,20.48-49.92,56.32-49.92s55.68,17.92,55.68,49.92v367.36ZM1248.48,247.6h19.2l29.44,61.44h-19.2l-19.84-42.24-19.84,42.24h-19.2l29.44-61.44ZM1288.16,385.84c0-20.48-11.52-31.36-30.08-31.36s-30.72,10.88-30.72,31.36v366.08c0,20.48,12.16,31.36,30.72,31.36s30.08-10.88,30.08-31.36v-366.08Z"/>
  <path class="cls-1" d="M1356,337.84h25.6v442.88h67.2v19.2h-92.8v-462.08Z"/>
  <path class="cls-1" d="M1474.4,337.84h87.68v19.2h-62.08v195.84h58.24v19.2h-58.24v208.64h66.56v19.2h-92.16v-462.08Z"/>
  <path class="cls-1" d="M1664.48,337.84h54.4c37.76,0,57.6,14.72,57.6,49.28v363.52c0,34.56-19.84,49.28-57.6,49.28h-54.4v-462.08ZM1716.32,780.72c23.04,0,34.56-8.32,34.56-28.16v-367.36c0-19.84-11.52-28.16-34.56-28.16h-26.24v423.68h26.24Z"/>
  <path class="cls-1" d="M1818.72,337.84h87.68v19.2h-62.08v195.84h58.24v19.2h-58.24v208.64h66.56v19.2h-92.16v-462.08Z"/>
</svg>